<?xml version="1.0" encoding="UTF-8" standalone="no"?><!DOCTYPE svg PUBLIC "-//W3C//DTD SVG 1.1//EN" "http://www.w3.org/Graphics/SVG/1.1/DTD/svg11.dtd"><!-- Generated by graphviz version 2.40.1 (20161225.0304)
 --><!-- Title: XLA Pass Calling Process Pages: 1 --><svg xmlns="http://www.w3.org/2000/svg" xmlns:xlink="http://www.w3.org/1999/xlink" width="1546pt" height="1102pt" viewBox="0.00 0.00 1546.36 1102.00">
<g id="graph0" class="graph" transform="scale(1 1) rotate(0) translate(4 1098)">
<title>XLA Pass Calling Process</title>
<polygon fill="#ffffff" stroke="transparent" points="-4,4 -4,-1098 1542.3576,-1098 1542.3576,4 -4,4"/>
<!-- 0 -->
<g id="node1" class="node">
<title>0</title>
<path fill="#00bfff" stroke="#00bfff" d="M99.2982,-1094C99.2982,-1094 51.3622,-1094 51.3622,-1094 45.3622,-1094 39.3622,-1088 39.3622,-1082 39.3622,-1082 39.3622,-1070 39.3622,-1070 39.3622,-1064 45.3622,-1058 51.3622,-1058 51.3622,-1058 99.2982,-1058 99.2982,-1058 105.2982,-1058 111.2982,-1064 111.2982,-1070 111.2982,-1070 111.2982,-1082 111.2982,-1082 111.2982,-1088 105.2982,-1094 99.2982,-1094"/>
<text text-anchor="middle" x="75.3302" y="-1072.4" font-family="YaHei Consolas" font-size="12.00" fill="#ffffff">HloVerifier</text>
</g>
<!-- 1 -->
<g id="node2" class="node">
<title>1</title>
<path fill="#00bfff" stroke="#00bfff" d="M327.4315,-1094C327.4315,-1094 231.1601,-1094 231.1601,-1094 225.1601,-1094 219.1601,-1088 219.1601,-1082 219.1601,-1082 219.1601,-1070 219.1601,-1070 219.1601,-1064 225.1601,-1058 231.1601,-1058 231.1601,-1058 327.4315,-1058 327.4315,-1058 333.4315,-1058 339.4315,-1064 339.4315,-1070 339.4315,-1070 339.4315,-1082 339.4315,-1082 339.4315,-1088 333.4315,-1094 327.4315,-1094"/>
<text text-anchor="middle" x="279.2958" y="-1072.4" font-family="YaHei Consolas" font-size="12.00" fill="#ffffff">AllToAllDecomposer</text>
</g>
<!-- 0&#45;&gt;1 -->
<g id="edge13" class="edge">
<title>0-&gt;1</title>
<path fill="none" stroke="#999999" d="M111.3256,-1076C138.2727,-1076 175.9916,-1076 208.8607,-1076"/>
<polygon fill="#999999" stroke="#999999" points="208.8886,-1079.5001 218.8885,-1076 208.8885,-1072.5001 208.8886,-1079.5001"/>
</g>
<!-- 8 -->
<g id="node9" class="node">
<title>8</title>
<path fill="#00bfff" stroke="#00bfff" d="M121.2878,-1002C121.2878,-1002 29.3726,-1002 29.3726,-1002 23.3726,-1002 17.3726,-996 17.3726,-990 17.3726,-990 17.3726,-978 17.3726,-978 17.3726,-972 23.3726,-966 29.3726,-966 29.3726,-966 121.2878,-966 121.2878,-966 127.2878,-966 133.2878,-972 133.2878,-978 133.2878,-978 133.2878,-990 133.2878,-990 133.2878,-996 127.2878,-1002 121.2878,-1002"/>
<text text-anchor="middle" x="75.3302" y="-980.4" font-family="YaHei Consolas" font-size="12.00" fill="#ffffff">GpuScatterExpander</text>
</g>
<!-- 0&#45;&gt;8 -->
<!-- 2 -->
<g id="node3" class="node">
<title>2</title>
<path fill="#00bfff" stroke="#00bfff" d="M522.8598,-1094C522.8598,-1094 446.9582,-1094 446.9582,-1094 440.9582,-1094 434.9582,-1088 434.9582,-1082 434.9582,-1082 434.9582,-1070 434.9582,-1070 434.9582,-1064 440.9582,-1058 446.9582,-1058 446.9582,-1058 522.8598,-1058 522.8598,-1058 528.8598,-1058 534.8598,-1064 534.8598,-1070 534.8598,-1070 534.8598,-1082 534.8598,-1082 534.8598,-1088 528.8598,-1094 522.8598,-1094"/>
<text text-anchor="middle" x="484.909" y="-1072.4" font-family="YaHei Consolas" font-size="12.00" fill="#ffffff">OperandUpcaster</text>
</g>
<!-- 1&#45;&gt;2 -->
<g id="edge14" class="edge">
<title>1-&gt;2</title>
<path fill="none" stroke="#999999" d="M339.5973,-1076C366.391,-1076 397.8599,-1076 424.6489,-1076"/>
<polygon fill="#999999" stroke="#999999" points="424.6674,-1079.5001 434.6674,-1076 424.6674,-1072.5001 424.6674,-1079.5001"/>
</g>
<!-- 3 -->
<g id="node4" class="node">
<title>3</title>
<path fill="#00bfff" stroke="#00bfff" d="M705.6939,-1094C705.6939,-1094 652.0549,-1094 652.0549,-1094 646.0549,-1094 640.0549,-1088 640.0549,-1082 640.0549,-1082 640.0549,-1070 640.0549,-1070 640.0549,-1064 646.0549,-1058 652.0549,-1058 652.0549,-1058 705.6939,-1058 705.6939,-1058 711.6939,-1058 717.6939,-1064 717.6939,-1070 717.6939,-1070 717.6939,-1082 717.6939,-1082 717.6939,-1088 711.6939,-1094 705.6939,-1094"/>
<text text-anchor="middle" x="678.8744" y="-1072.4" font-family="YaHei Consolas" font-size="12.00" fill="#ffffff">ResultCaster</text>
</g>
<!-- 2&#45;&gt;3 -->
<g id="edge15" class="edge">
<title>2-&gt;3</title>
<path fill="none" stroke="#999999" d="M534.8599,-1076C564.0512,-1076 600.7433,-1076 629.7852,-1076"/>
<polygon fill="#999999" stroke="#999999" points="630.1106,-1079.5001 640.1106,-1076 630.1106,-1072.5001 630.1106,-1079.5001"/>
</g>
<!-- 4 -->
<g id="node5" class="node">
<title>4</title>
<path fill="#00bfff" stroke="#00bfff" d="M905.498,-1094C905.498,-1094 847.534,-1094 847.534,-1094 841.534,-1094 835.534,-1088 835.534,-1082 835.534,-1082 835.534,-1070 835.534,-1070 835.534,-1064 841.534,-1058 847.534,-1058 847.534,-1058 905.498,-1058 905.498,-1058 911.498,-1058 917.498,-1064 917.498,-1070 917.498,-1070 917.498,-1082 917.498,-1082 917.498,-1088 911.498,-1094 905.498,-1094"/>
<text text-anchor="middle" x="876.516" y="-1072.4" font-family="YaHei Consolas" font-size="12.00" fill="#ffffff">RngExpander</text>
</g>
<!-- 3&#45;&gt;4 -->
<g id="edge16" class="edge">
<title>3-&gt;4</title>
<path fill="none" stroke="#999999" d="M717.922,-1076C748.7112,-1076 791.9005,-1076 825.4353,-1076"/>
<polygon fill="#999999" stroke="#999999" points="825.5083,-1079.5001 835.5083,-1076 825.5083,-1072.5001 825.5083,-1079.5001"/>
</g>
<!-- 5 -->
<g id="node6" class="node">
<title>5</title>
<path fill="#00bfff" stroke="#00bfff" d="M1132.9481,-1094C1132.9481,-1094 1012.7031,-1094 1012.7031,-1094 1006.7031,-1094 1000.7031,-1088 1000.7031,-1082 1000.7031,-1082 1000.7031,-1070 1000.7031,-1070 1000.7031,-1064 1006.7031,-1058 1012.7031,-1058 1012.7031,-1058 1132.9481,-1058 1132.9481,-1058 1138.9481,-1058 1144.9481,-1064 1144.9481,-1070 1144.9481,-1070 1144.9481,-1082 1144.9481,-1082 1144.9481,-1088 1138.9481,-1094 1132.9481,-1094"/>
<text text-anchor="middle" x="1072.8256" y="-1072.4" font-family="YaHei Consolas" font-size="12.00" fill="#ffffff">RngBitGeneratorExpander</text>
</g>
<!-- 4&#45;&gt;5 -->
<g id="edge17" class="edge">
<title>4-&gt;5</title>
<path fill="none" stroke="#999999" d="M917.6689,-1076C938.7167,-1076 965.1158,-1076 990.1391,-1076"/>
<polygon fill="#999999" stroke="#999999" points="990.3862,-1079.5001 1000.3861,-1076 990.3861,-1072.5001 990.3862,-1079.5001"/>
</g>
<!-- 6 -->
<g id="node7" class="node">
<title>6</title>
<path fill="#00bfff" stroke="#00bfff" d="M1311.9237,-1094C1311.9237,-1094 1215.6427,-1094 1215.6427,-1094 1209.6427,-1094 1203.6427,-1088 1203.6427,-1082 1203.6427,-1082 1203.6427,-1070 1203.6427,-1070 1203.6427,-1064 1209.6427,-1058 1215.6427,-1058 1215.6427,-1058 1311.9237,-1058 1311.9237,-1058 1317.9237,-1058 1323.9237,-1064 1323.9237,-1070 1323.9237,-1070 1323.9237,-1082 1323.9237,-1082 1323.9237,-1088 1317.9237,-1094 1311.9237,-1094"/>
<text text-anchor="middle" x="1263.7832" y="-1072.4" font-family="YaHei Consolas" font-size="12.00" fill="#ffffff">ComparisonExpander</text>
</g>
<!-- 5&#45;&gt;6 -->
<g id="edge18" class="edge">
<title>5-&gt;6</title>
<path fill="none" stroke="#999999" d="M1145.0185,-1076C1160.8734,-1076 1177.6407,-1076 1193.4223,-1076"/>
<polygon fill="#999999" stroke="#999999" points="1193.6313,-1079.5001 1203.6313,-1076 1193.6312,-1072.5001 1193.6313,-1079.5001"/>
</g>
<!-- 7 -->
<g id="node8" class="node">
<title>7</title>
<path fill="#00bfff" stroke="#00bfff" d="M1514.697,-1094C1514.697,-1094 1398.7458,-1094 1398.7458,-1094 1392.7458,-1094 1386.7458,-1088 1386.7458,-1082 1386.7458,-1082 1386.7458,-1070 1386.7458,-1070 1386.7458,-1064 1392.7458,-1058 1398.7458,-1058 1398.7458,-1058 1514.697,-1058 1514.697,-1058 1520.697,-1058 1526.697,-1064 1526.697,-1070 1526.697,-1070 1526.697,-1082 1526.697,-1082 1526.697,-1088 1520.697,-1094 1514.697,-1094"/>
<text text-anchor="middle" x="1456.7214" y="-1072.4" font-family="YaHei Consolas" font-size="12.00" fill="#ffffff">ZeroSizedHloElimination</text>
</g>
<!-- 6&#45;&gt;7 -->
<g id="edge19" class="edge">
<title>6-&gt;7</title>
<path fill="none" stroke="#999999" d="M1324.0364,-1076C1340.5809,-1076 1358.7878,-1076 1376.2724,-1076"/>
<polygon fill="#999999" stroke="#999999" points="1376.4656,-1079.5001 1386.4656,-1076 1376.4655,-1072.5001 1376.4656,-1079.5001"/>
</g>
<!-- 7&#45;&gt;8 -->
<g id="edge98" class="edge">
<title>7-&gt;8</title>
<path fill="none" stroke="#999999" d="M1386.4563,-1058.0102C1370.94,-1054.5601 1354.5243,-1051.3085 1339.0852,-1049 1221.7511,-1031.4556 1191.4641,-1030 1072.8256,-1030 484.909,-1030 484.909,-1030 484.909,-1030 352.0854,-1030 317.9772,-1030.9505 186.6604,-1011 172.4417,-1008.8398 157.3728,-1005.7457 143.0684,-1002.4176"/>
<polygon fill="#999999" stroke="#999999" points="143.847,-999.0052 133.3074,-1000.0847 142.2198,-1005.8134 143.847,-999.0052"/>
</g>
<!-- 9 -->
<g id="node10" class="node">
<title>9</title>
<path fill="#00bfff" stroke="#00bfff" d="M304.4335,-1002C304.4335,-1002 254.1581,-1002 254.1581,-1002 248.1581,-1002 242.1581,-996 242.1581,-990 242.1581,-990 242.1581,-978 242.1581,-978 242.1581,-972 248.1581,-966 254.1581,-966 254.1581,-966 304.4335,-966 304.4335,-966 310.4335,-966 316.4335,-972 316.4335,-978 316.4335,-978 316.4335,-990 316.4335,-990 316.4335,-996 310.4335,-1002 304.4335,-1002"/>
<text text-anchor="middle" x="279.2958" y="-980.4" font-family="YaHei Consolas" font-size="12.00" fill="#ffffff">QrExpander</text>
</g>
<!-- 8&#45;&gt;9 -->
<g id="edge20" class="edge">
<title>8-&gt;9</title>
<path fill="none" stroke="#999999" d="M133.5056,-984C164.5468,-984 202.2733,-984 231.5712,-984"/>
<polygon fill="#999999" stroke="#999999" points="231.9559,-987.5001 241.9558,-984 231.9558,-980.5001 231.9559,-987.5001"/>
</g>
<!-- 16 -->
<g id="node17" class="node">
<title>16</title>
<path fill="#00bfff" stroke="#00bfff" d="M128.3122,-910C128.3122,-910 22.3482,-910 22.3482,-910 16.3482,-910 10.3482,-904 10.3482,-898 10.3482,-898 10.3482,-886 10.3482,-886 10.3482,-880 16.3482,-874 22.3482,-874 22.3482,-874 128.3122,-874 128.3122,-874 134.3122,-874 140.3122,-880 140.3122,-886 140.3122,-886 140.3122,-898 140.3122,-898 140.3122,-904 134.3122,-910 128.3122,-910"/>
<text text-anchor="middle" x="75.3302" y="-888.4" font-family="YaHei Consolas" font-size="12.00" fill="#ffffff">BFloat16Normalization</text>
</g>
<!-- 8&#45;&gt;16 -->
<!-- 10 -->
<g id="node11" class="node">
<title>10</title>
<path fill="#00bfff" stroke="#00bfff" d="M515.0545,-1002C515.0545,-1002 454.7635,-1002 454.7635,-1002 448.7635,-1002 442.7635,-996 442.7635,-990 442.7635,-990 442.7635,-978 442.7635,-978 442.7635,-972 448.7635,-966 454.7635,-966 454.7635,-966 515.0545,-966 515.0545,-966 521.0545,-966 527.0545,-972 527.0545,-978 527.0545,-978 527.0545,-990 527.0545,-990 527.0545,-996 521.0545,-1002 515.0545,-1002"/>
<text text-anchor="middle" x="484.909" y="-980.4" font-family="YaHei Consolas" font-size="12.00" fill="#ffffff">EighExpander</text>
</g>
<!-- 9&#45;&gt;10 -->
<g id="edge21" class="edge">
<title>9-&gt;10</title>
<path fill="none" stroke="#999999" d="M316.5308,-984C348.8669,-984 396.057,-984 432.2577,-984"/>
<polygon fill="#999999" stroke="#999999" points="432.632,-987.5001 442.632,-984 432.6319,-980.5001 432.632,-987.5001"/>
</g>
<!-- 11 -->
<g id="node12" class="node">
<title>11</title>
<path fill="#00bfff" stroke="#00bfff" d="M728.0141,-1002C728.0141,-1002 629.7347,-1002 629.7347,-1002 623.7347,-1002 617.7347,-996 617.7347,-990 617.7347,-990 617.7347,-978 617.7347,-978 617.7347,-972 623.7347,-966 629.7347,-966 629.7347,-966 728.0141,-966 728.0141,-966 734.0141,-966 740.0141,-972 740.0141,-978 740.0141,-978 740.0141,-990 740.0141,-990 740.0141,-996 734.0141,-1002 728.0141,-1002"/>
<text text-anchor="middle" x="678.8744" y="-980.4" font-family="YaHei Consolas" font-size="12.00" fill="#ffffff">DynamicIndexSplitter</text>
</g>
<!-- 10&#45;&gt;11 -->
<g id="edge22" class="edge">
<title>10-&gt;11</title>
<path fill="none" stroke="#999999" d="M527.4755,-984C550.9112,-984 580.6148,-984 607.4928,-984"/>
<polygon fill="#999999" stroke="#999999" points="607.6368,-987.5001 617.6367,-984 607.6367,-980.5001 607.6368,-987.5001"/>
</g>
<!-- 12 -->
<g id="node13" class="node">
<title>12</title>
<path fill="#00bfff" stroke="#00bfff" d="M898.5012,-1002C898.5012,-1002 854.5308,-1002 854.5308,-1002 848.5308,-1002 842.5308,-996 842.5308,-990 842.5308,-990 842.5308,-978 842.5308,-978 842.5308,-972 848.5308,-966 854.5308,-966 854.5308,-966 898.5012,-966 898.5012,-966 904.5012,-966 910.5012,-972 910.5012,-978 910.5012,-978 910.5012,-990 910.5012,-990 910.5012,-996 904.5012,-1002 898.5012,-1002"/>
<text text-anchor="middle" x="876.516" y="-980.4" font-family="YaHei Consolas" font-size="12.00" fill="#ffffff">CallInliner</text>
</g>
<!-- 11&#45;&gt;12 -->
<g id="edge23" class="edge">
<title>11-&gt;12</title>
<path fill="none" stroke="#999999" d="M740.0559,-984C769.7809,-984 804.8478,-984 831.9901,-984"/>
<polygon fill="#999999" stroke="#999999" points="832.349,-987.5001 842.349,-984 832.3489,-980.5001 832.349,-987.5001"/>
</g>
<!-- 13 -->
<g id="node14" class="node">
<title>13</title>
<path fill="#00bfff" stroke="#00bfff" d="M1107.9635,-1002C1107.9635,-1002 1037.6877,-1002 1037.6877,-1002 1031.6877,-1002 1025.6877,-996 1025.6877,-990 1025.6877,-990 1025.6877,-978 1025.6877,-978 1025.6877,-972 1031.6877,-966 1037.6877,-966 1037.6877,-966 1107.9635,-966 1107.9635,-966 1113.9635,-966 1119.9635,-972 1119.9635,-978 1119.9635,-978 1119.9635,-990 1119.9635,-990 1119.9635,-996 1113.9635,-1002 1107.9635,-1002"/>
<text text-anchor="middle" x="1072.8256" y="-980.4" font-family="YaHei Consolas" font-size="12.00" fill="#ffffff">DotDecomposer</text>
</g>
<!-- 12&#45;&gt;13 -->
<g id="edge24" class="edge">
<title>12-&gt;13</title>
<path fill="none" stroke="#999999" d="M910.7105,-984C939.4813,-984 981.238,-984 1015.1666,-984"/>
<polygon fill="#999999" stroke="#999999" points="1015.4219,-987.5001 1025.4219,-984 1015.4218,-980.5001 1015.4219,-987.5001"/>
</g>
<!-- 14 -->
<g id="node15" class="node">
<title>14</title>
<path fill="#00bfff" stroke="#00bfff" d="M1319.9328,-1002C1319.9328,-1002 1207.6336,-1002 1207.6336,-1002 1201.6336,-1002 1195.6336,-996 1195.6336,-990 1195.6336,-990 1195.6336,-978 1195.6336,-978 1195.6336,-972 1201.6336,-966 1207.6336,-966 1207.6336,-966 1319.9328,-966 1319.9328,-966 1325.9328,-966 1331.9328,-972 1331.9328,-978 1331.9328,-978 1331.9328,-990 1331.9328,-990 1331.9328,-996 1325.9328,-1002 1319.9328,-1002"/>
<text text-anchor="middle" x="1263.7832" y="-980.4" font-family="YaHei Consolas" font-size="12.00" fill="#ffffff">Convolution4DExpander</text>
</g>
<!-- 13&#45;&gt;14 -->
<g id="edge25" class="edge">
<title>13-&gt;14</title>
<path fill="none" stroke="#999999" d="M1120.0286,-984C1139.7586,-984 1163.2209,-984 1185.4092,-984"/>
<polygon fill="#999999" stroke="#999999" points="1185.4962,-987.5001 1195.4962,-984 1185.4961,-980.5001 1185.4962,-987.5001"/>
</g>
<!-- 15 -->
<g id="node16" class="node">
<title>15</title>
<path fill="#00bfff" stroke="#00bfff" d="M1500.695,-1002C1500.695,-1002 1412.7478,-1002 1412.7478,-1002 1406.7478,-1002 1400.7478,-996 1400.7478,-990 1400.7478,-990 1400.7478,-978 1400.7478,-978 1400.7478,-972 1406.7478,-966 1412.7478,-966 1412.7478,-966 1500.695,-966 1500.695,-966 1506.695,-966 1512.695,-972 1512.695,-978 1512.695,-978 1512.695,-990 1512.695,-990 1512.695,-996 1506.695,-1002 1500.695,-1002"/>
<text text-anchor="middle" x="1456.7214" y="-980.4" font-family="YaHei Consolas" font-size="12.00" fill="#ffffff">StableSortExpander</text>
</g>
<!-- 14&#45;&gt;15 -->
<g id="edge26" class="edge">
<title>14-&gt;15</title>
<path fill="none" stroke="#999999" d="M1332.0775,-984C1351.0108,-984 1371.5312,-984 1390.3527,-984"/>
<polygon fill="#999999" stroke="#999999" points="1390.6135,-987.5001 1400.6135,-984 1390.6134,-980.5001 1390.6135,-987.5001"/>
</g>
<!-- 15&#45;&gt;16 -->
<g id="edge99" class="edge">
<title>15-&gt;16</title>
<path fill="none" stroke="#999999" d="M1400.5147,-969.2406C1381.1689,-964.6576 1359.2907,-960.0212 1339.0852,-957 1221.7511,-939.4556 1191.4641,-938 1072.8256,-938 484.909,-938 484.909,-938 484.909,-938 352.0854,-938 317.9772,-938.9505 186.6604,-919 174.9088,-917.2146 162.5764,-914.7913 150.5748,-912.1252"/>
<polygon fill="#999999" stroke="#999999" points="151.1205,-908.6596 140.5914,-909.8372 149.5568,-915.4827 151.1205,-908.6596"/>
</g>
<!-- 17 -->
<g id="node18" class="node">
<title>17</title>
<path fill="#00bfff" stroke="#00bfff" d="M326.2586,-910C326.2586,-910 232.333,-910 232.333,-910 226.333,-910 220.333,-904 220.333,-898 220.333,-898 220.333,-886 220.333,-886 220.333,-880 226.333,-874 232.333,-874 232.333,-874 326.2586,-874 326.2586,-874 332.2586,-874 338.2586,-880 338.2586,-886 338.2586,-886 338.2586,-898 338.2586,-898 338.2586,-904 332.2586,-910 326.2586,-910"/>
<text text-anchor="middle" x="279.2958" y="-888.4" font-family="YaHei Consolas" font-size="12.00" fill="#ffffff">BatchNormExpander</text>
</g>
<!-- 16&#45;&gt;17 -->
<g id="edge27" class="edge">
<title>16-&gt;17</title>
<path fill="none" stroke="#999999" d="M140.427,-892C162.5683,-892 187.3904,-892 209.8583,-892"/>
<polygon fill="#999999" stroke="#999999" points="209.9976,-895.5001 219.9976,-892 209.9976,-888.5001 209.9976,-895.5001"/>
</g>
<!-- 24 -->
<g id="node25" class="node">
<title>24</title>
<path fill="#00bfff" stroke="#00bfff" d="M110.4561,-818C110.4561,-818 40.2043,-818 40.2043,-818 34.2043,-818 28.2043,-812 28.2043,-806 28.2043,-806 28.2043,-794 28.2043,-794 28.2043,-788 34.2043,-782 40.2043,-782 40.2043,-782 110.4561,-782 110.4561,-782 116.4561,-782 122.4561,-788 122.4561,-794 122.4561,-794 122.4561,-806 122.4561,-806 122.4561,-812 116.4561,-818 110.4561,-818"/>
<text text-anchor="middle" x="75.3302" y="-796.4" font-family="YaHei Consolas" font-size="12.00" fill="#ffffff">GatherExpander</text>
</g>
<!-- 16&#45;&gt;24 -->
<!-- 18 -->
<g id="node19" class="node">
<title>18</title>
<path fill="#00bfff" stroke="#00bfff" d="M523.7175,-910C523.7175,-910 446.1005,-910 446.1005,-910 440.1005,-910 434.1005,-904 434.1005,-898 434.1005,-898 434.1005,-886 434.1005,-886 434.1005,-880 440.1005,-874 446.1005,-874 446.1005,-874 523.7175,-874 523.7175,-874 529.7175,-874 535.7175,-880 535.7175,-886 535.7175,-886 535.7175,-898 535.7175,-898 535.7175,-904 529.7175,-910 523.7175,-910"/>
<text text-anchor="middle" x="484.909" y="-888.4" font-family="YaHei Consolas" font-size="12.00" fill="#ffffff">LogisticExpander</text>
</g>
<!-- 17&#45;&gt;18 -->
<g id="edge28" class="edge">
<title>17-&gt;18</title>
<path fill="none" stroke="#999999" d="M338.4918,-892C365.3172,-892 397.0054,-892 424.0294,-892"/>
<polygon fill="#999999" stroke="#999999" points="424.1384,-895.5001 434.1384,-892 424.1384,-888.5001 424.1384,-895.5001"/>
</g>
<!-- 19 -->
<g id="node20" class="node">
<title>19</title>
<path fill="#00bfff" stroke="#00bfff" d="M736.6795,-910C736.6795,-910 621.0693,-910 621.0693,-910 615.0693,-910 609.0693,-904 609.0693,-898 609.0693,-898 609.0693,-886 609.0693,-886 609.0693,-880 615.0693,-874 621.0693,-874 621.0693,-874 736.6795,-874 736.6795,-874 742.6795,-874 748.6795,-880 748.6795,-886 748.6795,-886 748.6795,-898 748.6795,-898 748.6795,-904 742.6795,-910 736.6795,-910"/>
<text text-anchor="middle" x="678.8744" y="-888.4" font-family="YaHei Consolas" font-size="12.00" fill="#ffffff">ConditionalCanonicalizer</text>
</g>
<!-- 18&#45;&gt;19 -->
<g id="edge29" class="edge">
<title>18-&gt;19</title>
<path fill="none" stroke="#999999" d="M535.6178,-892C554.9978,-892 577.5979,-892 599.0425,-892"/>
<polygon fill="#999999" stroke="#999999" points="599.1268,-895.5001 609.1268,-892 599.1267,-888.5001 599.1268,-895.5001"/>
</g>
<!-- 20 -->
<g id="node21" class="node">
<title>20</title>
<path fill="#00bfff" stroke="#00bfff" d="M945.3243,-910C945.3243,-910 807.7077,-910 807.7077,-910 801.7077,-910 795.7077,-904 795.7077,-898 795.7077,-898 795.7077,-886 795.7077,-886 795.7077,-880 801.7077,-874 807.7077,-874 807.7077,-874 945.3243,-874 945.3243,-874 951.3243,-874 957.3243,-880 957.3243,-886 957.3243,-886 957.3243,-898 957.3243,-898 957.3243,-904 951.3243,-910 945.3243,-910"/>
<text text-anchor="middle" x="876.516" y="-888.4" font-family="YaHei Consolas" font-size="12.00" fill="#ffffff">DynamicDimensionSimplifier</text>
</g>
<!-- 19&#45;&gt;20 -->
<g id="edge30" class="edge">
<title>19-&gt;20</title>
<path fill="none" stroke="#999999" d="M748.5554,-892C760.4506,-892 772.9643,-892 785.3183,-892"/>
<polygon fill="#999999" stroke="#999999" points="785.6409,-895.5001 795.6409,-892 785.6409,-888.5001 785.6409,-895.5001"/>
</g>
<!-- 21 -->
<g id="node22" class="node">
<title>21</title>
<path fill="#00bfff" stroke="#00bfff" d="M1107.6313,-910C1107.6313,-910 1038.0199,-910 1038.0199,-910 1032.0199,-910 1026.0199,-904 1026.0199,-898 1026.0199,-898 1026.0199,-886 1026.0199,-886 1026.0199,-880 1032.0199,-874 1038.0199,-874 1038.0199,-874 1107.6313,-874 1107.6313,-874 1113.6313,-874 1119.6313,-880 1119.6313,-886 1119.6313,-886 1119.6313,-898 1119.6313,-898 1119.6313,-904 1113.6313,-910 1107.6313,-910"/>
<text text-anchor="middle" x="1072.8256" y="-888.4" font-family="YaHei Consolas" font-size="12.00" fill="#ffffff">DynamicPadder</text>
</g>
<!-- 20&#45;&gt;21 -->
<g id="edge31" class="edge">
<title>20-&gt;21</title>
<path fill="none" stroke="#999999" d="M957.2125,-892C976.9294,-892 997.6174,-892 1015.9547,-892"/>
<polygon fill="#999999" stroke="#999999" points="1016.1659,-895.5001 1026.1659,-892 1016.1658,-888.5001 1016.1659,-895.5001"/>
</g>
<!-- 22 -->
<g id="node23" class="node">
<title>22</title>
<path fill="#00bfff" stroke="#00bfff" d="M1287.7512,-910C1287.7512,-910 1239.8152,-910 1239.8152,-910 1233.8152,-910 1227.8152,-904 1227.8152,-898 1227.8152,-898 1227.8152,-886 1227.8152,-886 1227.8152,-880 1233.8152,-874 1239.8152,-874 1239.8152,-874 1287.7512,-874 1287.7512,-874 1293.7512,-874 1299.7512,-880 1299.7512,-886 1299.7512,-886 1299.7512,-898 1299.7512,-898 1299.7512,-904 1293.7512,-910 1287.7512,-910"/>
<text text-anchor="middle" x="1263.7832" y="-888.4" font-family="YaHei Consolas" font-size="12.00" fill="#ffffff">HloVerifier</text>
</g>
<!-- 21&#45;&gt;22 -->
<g id="edge32" class="edge">
<title>21-&gt;22</title>
<path fill="none" stroke="#999999" d="M1119.5391,-892C1149.3677,-892 1187.8763,-892 1217.601,-892"/>
<polygon fill="#999999" stroke="#999999" points="1217.7201,-895.5001 1227.72,-892 1217.72,-888.5001 1217.7201,-895.5001"/>
</g>
<!-- 23 -->
<g id="node24" class="node">
<title>23</title>
<path fill="#00bfff" stroke="#00bfff" d="M1514.697,-910C1514.697,-910 1398.7458,-910 1398.7458,-910 1392.7458,-910 1386.7458,-904 1386.7458,-898 1386.7458,-898 1386.7458,-886 1386.7458,-886 1386.7458,-880 1392.7458,-874 1398.7458,-874 1398.7458,-874 1514.697,-874 1514.697,-874 1520.697,-874 1526.697,-880 1526.697,-886 1526.697,-886 1526.697,-898 1526.697,-898 1526.697,-904 1520.697,-910 1514.697,-910"/>
<text text-anchor="middle" x="1456.7214" y="-888.4" font-family="YaHei Consolas" font-size="12.00" fill="#ffffff">ZeroSizedHloElimination</text>
</g>
<!-- 22&#45;&gt;23 -->
<g id="edge33" class="edge">
<title>22-&gt;23</title>
<path fill="none" stroke="#999999" d="M1300.0734,-892C1321.6583,-892 1349.9358,-892 1376.5168,-892"/>
<polygon fill="#999999" stroke="#999999" points="1376.6037,-895.5001 1386.6037,-892 1376.6037,-888.5001 1376.6037,-895.5001"/>
</g>
<!-- 23&#45;&gt;24 -->
<g id="edge100" class="edge">
<title>23-&gt;24</title>
<path fill="none" stroke="#999999" d="M1386.4563,-874.0102C1370.94,-870.5601 1354.5243,-867.3085 1339.0852,-865 1221.7511,-847.4556 1191.4641,-846 1072.8256,-846 484.909,-846 484.909,-846 484.909,-846 352.0854,-846 317.9772,-846.9505 186.6604,-827 168.9086,-824.303 149.8314,-820.1503 132.5714,-815.904"/>
<polygon fill="#999999" stroke="#999999" points="133.1948,-812.4518 122.6428,-813.4034 131.4851,-819.2398 133.1948,-812.4518"/>
</g>
<!-- 25 -->
<g id="node26" class="node">
<title>25</title>
<path fill="#00bfff" stroke="#00bfff" d="M315.0911,-818C315.0911,-818 243.5005,-818 243.5005,-818 237.5005,-818 231.5005,-812 231.5005,-806 231.5005,-806 231.5005,-794 231.5005,-794 231.5005,-788 237.5005,-782 243.5005,-782 243.5005,-782 315.0911,-782 315.0911,-782 321.0911,-782 327.0911,-788 327.0911,-794 327.0911,-794 327.0911,-806 327.0911,-806 327.0911,-812 321.0911,-818 315.0911,-818"/>
<text text-anchor="middle" x="279.2958" y="-796.4" font-family="YaHei Consolas" font-size="12.00" fill="#ffffff">ScatterExpander</text>
</g>
<!-- 24&#45;&gt;25 -->
<g id="edge34" class="edge">
<title>24-&gt;25</title>
<path fill="none" stroke="#999999" d="M122.6367,-800C152.0298,-800 190.026,-800 221.2371,-800"/>
<polygon fill="#999999" stroke="#999999" points="221.5394,-803.5001 231.5393,-800 221.5393,-796.5001 221.5394,-803.5001"/>
</g>
<!-- 32 -->
<g id="node33" class="node">
<title>32</title>
<path fill="#00bfff" stroke="#00bfff" d="M138.491,-726C138.491,-726 12.1694,-726 12.1694,-726 6.1694,-726 .1694,-720 .1694,-714 .1694,-714 .1694,-702 .1694,-702 .1694,-696 6.1694,-690 12.1694,-690 12.1694,-690 138.491,-690 138.491,-690 144.491,-690 150.491,-696 150.491,-702 150.491,-702 150.491,-714 150.491,-714 150.491,-720 144.491,-726 138.491,-726"/>
<text text-anchor="middle" x="75.3302" y="-704.4" font-family="YaHei Consolas" font-size="12.00" fill="#ffffff">WhileLoopConstantSinking</text>
</g>
<!-- 24&#45;&gt;32 -->
<!-- 26 -->
<g id="node27" class="node">
<title>26</title>
<path fill="#00bfff" stroke="#00bfff" d="M528.8778,-818C528.8778,-818 440.9402,-818 440.9402,-818 434.9402,-818 428.9402,-812 428.9402,-806 428.9402,-806 428.9402,-794 428.9402,-794 428.9402,-788 434.9402,-782 440.9402,-782 440.9402,-782 528.8778,-782 528.8778,-782 534.8778,-782 540.8778,-788 540.8778,-794 540.8778,-794 540.8778,-806 540.8778,-806 540.8778,-812 534.8778,-818 528.8778,-818"/>
<text text-anchor="middle" x="484.909" y="-796.4" font-family="YaHei Consolas" font-size="12.00" fill="#ffffff">AlgebraicSimplifier</text>
</g>
<!-- 25&#45;&gt;26 -->
<g id="edge35" class="edge">
<title>25-&gt;26</title>
<path fill="none" stroke="#999999" d="M326.9844,-800C354.1514,-800 388.609,-800 418.4008,-800"/>
<polygon fill="#999999" stroke="#999999" points="418.7243,-803.5001 428.7243,-800 418.7243,-796.5001 418.7243,-803.5001"/>
</g>
<!-- 27 -->
<g id="node28" class="node">
<title>27</title>
<path fill="#00bfff" stroke="#00bfff" d="M731.6727,-818C731.6727,-818 626.0761,-818 626.0761,-818 620.0761,-818 614.0761,-812 614.0761,-806 614.0761,-806 614.0761,-794 614.0761,-794 614.0761,-788 620.0761,-782 626.0761,-782 626.0761,-782 731.6727,-782 731.6727,-782 737.6727,-782 743.6727,-788 743.6727,-794 743.6727,-794 743.6727,-806 743.6727,-806 743.6727,-812 737.6727,-818 731.6727,-818"/>
<text text-anchor="middle" x="678.8744" y="-796.4" font-family="YaHei Consolas" font-size="12.00" fill="#ffffff">BitcastDtypesExpander</text>
</g>
<!-- 26&#45;&gt;27 -->
<g id="edge36" class="edge">
<title>26-&gt;27</title>
<path fill="none" stroke="#999999" d="M541.0118,-800C560.6268,-800 582.9725,-800 603.8792,-800"/>
<polygon fill="#999999" stroke="#999999" points="604.0087,-803.5001 614.0086,-800 604.0086,-796.5001 604.0087,-803.5001"/>
</g>
<!-- 28 -->
<g id="node29" class="node">
<title>28</title>
<path fill="#00bfff" stroke="#00bfff" d="M911.6539,-818C911.6539,-818 841.3781,-818 841.3781,-818 835.3781,-818 829.3781,-812 829.3781,-806 829.3781,-806 829.3781,-794 829.3781,-794 829.3781,-788 835.3781,-782 841.3781,-782 841.3781,-782 911.6539,-782 911.6539,-782 917.6539,-782 923.6539,-788 923.6539,-794 923.6539,-794 923.6539,-806 923.6539,-806 923.6539,-812 917.6539,-818 911.6539,-818"/>
<text text-anchor="middle" x="876.516" y="-796.4" font-family="YaHei Consolas" font-size="12.00" fill="#ffffff">DotDecomposer</text>
</g>
<!-- 27&#45;&gt;28 -->
<g id="edge37" class="edge">
<title>27-&gt;28</title>
<path fill="none" stroke="#999999" d="M743.5897,-800C767.9103,-800 795.3723,-800 818.995,-800"/>
<polygon fill="#999999" stroke="#999999" points="819.2074,-803.5001 829.2073,-800 819.2073,-796.5001 819.2074,-803.5001"/>
</g>
<!-- 29 -->
<g id="node30" class="node">
<title>29</title>
<path fill="#00bfff" stroke="#00bfff" d="M1095.6339,-818C1095.6339,-818 1050.0173,-818 1050.0173,-818 1044.0173,-818 1038.0173,-812 1038.0173,-806 1038.0173,-806 1038.0173,-794 1038.0173,-794 1038.0173,-788 1044.0173,-782 1050.0173,-782 1050.0173,-782 1095.6339,-782 1095.6339,-782 1101.6339,-782 1107.6339,-788 1107.6339,-794 1107.6339,-794 1107.6339,-806 1107.6339,-806 1107.6339,-812 1101.6339,-818 1095.6339,-818"/>
<text text-anchor="middle" x="1072.8256" y="-796.4" font-family="YaHei Consolas" font-size="12.00" fill="#ffffff">DotMerger</text>
</g>
<!-- 28&#45;&gt;29 -->
<g id="edge38" class="edge">
<title>28-&gt;29</title>
<path fill="none" stroke="#999999" d="M924.0371,-800C955.6412,-800 996.8895,-800 1027.9377,-800"/>
<polygon fill="#999999" stroke="#999999" points="1028.0474,-803.5001 1038.0473,-800 1028.0473,-796.5001 1028.0474,-803.5001"/>
</g>
<!-- 30 -->
<g id="node31" class="node">
<title>30</title>
<path fill="#00bfff" stroke="#00bfff" d="M1293.9455,-818C1293.9455,-818 1233.6209,-818 1233.6209,-818 1227.6209,-818 1221.6209,-812 1221.6209,-806 1221.6209,-806 1221.6209,-794 1221.6209,-794 1221.6209,-788 1227.6209,-782 1233.6209,-782 1233.6209,-782 1293.9455,-782 1293.9455,-782 1299.9455,-782 1305.9455,-788 1305.9455,-794 1305.9455,-794 1305.9455,-806 1305.9455,-806 1305.9455,-812 1299.9455,-818 1293.9455,-818"/>
<text text-anchor="middle" x="1263.7832" y="-796.4" font-family="YaHei Consolas" font-size="12.00" fill="#ffffff">SortSimplifier</text>
</g>
<!-- 29&#45;&gt;30 -->
<g id="edge39" class="edge">
<title>29-&gt;30</title>
<path fill="none" stroke="#999999" d="M1107.8502,-800C1136.7057,-800 1178.0759,-800 1210.9539,-800"/>
<polygon fill="#999999" stroke="#999999" points="1211.3035,-803.5001 1221.3035,-800 1211.3034,-796.5001 1211.3035,-803.5001"/>
</g>
<!-- 31 -->
<g id="node32" class="node">
<title>31</title>
<path fill="#00bfff" stroke="#00bfff" d="M1490.8756,-818C1490.8756,-818 1422.5672,-818 1422.5672,-818 1416.5672,-818 1410.5672,-812 1410.5672,-806 1410.5672,-806 1410.5672,-794 1410.5672,-794 1410.5672,-788 1416.5672,-782 1422.5672,-782 1422.5672,-782 1490.8756,-782 1490.8756,-782 1496.8756,-782 1502.8756,-788 1502.8756,-794 1502.8756,-794 1502.8756,-806 1502.8756,-806 1502.8756,-812 1496.8756,-818 1490.8756,-818"/>
<text text-anchor="middle" x="1456.7214" y="-796.4" font-family="YaHei Consolas" font-size="12.00" fill="#ffffff">TupleSimplifier</text>
</g>
<!-- 30&#45;&gt;31 -->
<g id="edge40" class="edge">
<title>30-&gt;31</title>
<path fill="none" stroke="#999999" d="M1306.1243,-800C1333.7096,-800 1370.0252,-800 1400.083,-800"/>
<polygon fill="#999999" stroke="#999999" points="1400.4293,-803.5001 1410.4293,-800 1400.4293,-796.5001 1400.4293,-803.5001"/>
</g>
<!-- 31&#45;&gt;32 -->
<g id="edge101" class="edge">
<title>31-&gt;32</title>
<path fill="none" stroke="#999999" d="M1410.3809,-787.6241C1388.8491,-782.3235 1362.8137,-776.548 1339.0852,-773 1221.7511,-755.4556 1191.4641,-754 1072.8256,-754 484.909,-754 484.909,-754 484.909,-754 352.0854,-754 317.9772,-754.9505 186.6604,-735 175.1392,-733.2496 163.0598,-730.8861 151.2812,-728.2817"/>
<polygon fill="#999999" stroke="#999999" points="152.0047,-724.8569 141.4768,-726.0456 150.4481,-731.6817 152.0047,-724.8569"/>
</g>
<!-- 33 -->
<g id="node34" class="node">
<title>33</title>
<path fill="#00bfff" stroke="#00bfff" d="M327.1114,-726C327.1114,-726 231.4802,-726 231.4802,-726 225.4802,-726 219.4802,-720 219.4802,-714 219.4802,-714 219.4802,-702 219.4802,-702 219.4802,-696 225.4802,-690 231.4802,-690 231.4802,-690 327.1114,-690 327.1114,-690 333.1114,-690 339.1114,-696 339.1114,-702 339.1114,-702 339.1114,-714 339.1114,-714 339.1114,-720 333.1114,-726 327.1114,-726"/>
<text text-anchor="middle" x="279.2958" y="-704.4" font-family="YaHei Consolas" font-size="12.00" fill="#ffffff">WhileLoopSimplifier</text>
</g>
<!-- 32&#45;&gt;33 -->
<g id="edge41" class="edge">
<title>32-&gt;33</title>
<path fill="none" stroke="#999999" d="M150.7,-708C169.9385,-708 190.5356,-708 209.4824,-708"/>
<polygon fill="#999999" stroke="#999999" points="209.5205,-711.5001 219.5205,-708 209.5205,-704.5001 209.5205,-711.5001"/>
</g>
<!-- 40 -->
<g id="node41" class="node">
<title>40</title>
<path fill="#00bfff" stroke="#00bfff" d="M92.3242,-634C92.3242,-634 58.3362,-634 58.3362,-634 52.3362,-634 46.3362,-628 46.3362,-622 46.3362,-622 46.3362,-610 46.3362,-610 46.3362,-604 52.3362,-598 58.3362,-598 58.3362,-598 92.3242,-598 92.3242,-598 98.3242,-598 104.3242,-604 104.3242,-610 104.3242,-610 104.3242,-622 104.3242,-622 104.3242,-628 98.3242,-634 92.3242,-634"/>
<text text-anchor="middle" x="75.3302" y="-612.4" font-family="YaHei Consolas" font-size="12.00" fill="#ffffff">HloDCE</text>
</g>
<!-- 32&#45;&gt;40 -->
<!-- 34 -->
<g id="node35" class="node">
<title>34</title>
<path fill="#00bfff" stroke="#00bfff" d="M517.0481,-726C517.0481,-726 452.7699,-726 452.7699,-726 446.7699,-726 440.7699,-720 440.7699,-714 440.7699,-714 440.7699,-702 440.7699,-702 440.7699,-696 446.7699,-690 452.7699,-690 452.7699,-690 517.0481,-690 517.0481,-690 523.0481,-690 529.0481,-696 529.0481,-702 529.0481,-702 529.0481,-714 529.0481,-714 529.0481,-720 523.0481,-726 517.0481,-726"/>
<text text-anchor="middle" x="484.909" y="-704.4" font-family="YaHei Consolas" font-size="12.00" fill="#ffffff">ReshapeMover</text>
</g>
<!-- 33&#45;&gt;34 -->
<g id="edge42" class="edge">
<title>33-&gt;34</title>
<path fill="none" stroke="#999999" d="M339.0439,-708C367.9786,-708 402.4676,-708 430.6431,-708"/>
<polygon fill="#999999" stroke="#999999" points="430.716,-711.5001 440.716,-708 430.7159,-704.5001 430.716,-711.5001"/>
</g>
<!-- 35 -->
<g id="node36" class="node">
<title>35</title>
<path fill="#00bfff" stroke="#00bfff" d="M723.8784,-726C723.8784,-726 633.8704,-726 633.8704,-726 627.8704,-726 621.8704,-720 621.8704,-714 621.8704,-714 621.8704,-702 621.8704,-702 621.8704,-696 627.8704,-690 633.8704,-690 633.8704,-690 723.8784,-690 723.8784,-690 729.8784,-690 735.8784,-696 735.8784,-702 735.8784,-702 735.8784,-714 735.8784,-714 735.8784,-720 729.8784,-726 723.8784,-726"/>
<text text-anchor="middle" x="678.8744" y="-704.4" font-family="YaHei Consolas" font-size="12.00" fill="#ffffff">HloConstantFolding</text>
</g>
<!-- 34&#45;&gt;35 -->
<g id="edge43" class="edge">
<title>34-&gt;35</title>
<path fill="none" stroke="#999999" d="M529.4086,-708C553.7067,-708 584.2945,-708 611.4599,-708"/>
<polygon fill="#999999" stroke="#999999" points="611.6836,-711.5001 621.6835,-708 611.6835,-704.5001 611.6836,-711.5001"/>
</g>
<!-- 36 -->
<g id="node37" class="node">
<title>36</title>
<path fill="#00bfff" stroke="#00bfff" d="M925.3465,-726C925.3465,-726 827.6856,-726 827.6856,-726 821.6856,-726 815.6856,-720 815.6856,-714 815.6856,-714 815.6856,-702 815.6856,-702 815.6856,-696 821.6856,-690 827.6856,-690 827.6856,-690 925.3465,-690 925.3465,-690 931.3465,-690 937.3465,-696 937.3465,-702 937.3465,-702 937.3465,-714 937.3465,-714 937.3465,-720 931.3465,-726 925.3465,-726"/>
<text text-anchor="middle" x="876.516" y="-704.4" font-family="YaHei Consolas" font-size="12.00" fill="#ffffff">ConditionalSimplifier</text>
</g>
<!-- 35&#45;&gt;36 -->
<g id="edge44" class="edge">
<title>35-&gt;36</title>
<path fill="none" stroke="#999999" d="M736.0405,-708C757.6919,-708 782.6086,-708 805.3893,-708"/>
<polygon fill="#999999" stroke="#999999" points="805.6865,-711.5001 815.6865,-708 805.6864,-704.5001 805.6865,-711.5001"/>
</g>
<!-- 37 -->
<g id="node38" class="node">
<title>37</title>
<path fill="#00bfff" stroke="#00bfff" d="M1114.953,-726C1114.953,-726 1030.6982,-726 1030.6982,-726 1024.6982,-726 1018.6982,-720 1018.6982,-714 1018.6982,-714 1018.6982,-702 1018.6982,-702 1018.6982,-696 1024.6982,-690 1030.6982,-690 1030.6982,-690 1114.953,-690 1114.953,-690 1120.953,-690 1126.953,-696 1126.953,-702 1126.953,-702 1126.953,-714 1126.953,-714 1126.953,-720 1120.953,-726 1114.953,-726"/>
<text text-anchor="middle" x="1072.8256" y="-704.4" font-family="YaHei Consolas" font-size="12.00" fill="#ffffff">RealImagExpander</text>
</g>
<!-- 36&#45;&gt;37 -->
<g id="edge45" class="edge">
<title>36-&gt;37</title>
<path fill="none" stroke="#999999" d="M937.2852,-708C959.8424,-708 985.4967,-708 1008.3716,-708"/>
<polygon fill="#999999" stroke="#999999" points="1008.665,-711.5001 1018.665,-708 1008.665,-704.5001 1008.665,-711.5001"/>
</g>
<!-- 38 -->
<g id="node39" class="node">
<title>38</title>
<path fill="#00bfff" stroke="#00bfff" d="M1302.937,-726C1302.937,-726 1224.6294,-726 1224.6294,-726 1218.6294,-726 1212.6294,-720 1212.6294,-714 1212.6294,-714 1212.6294,-702 1212.6294,-702 1212.6294,-696 1218.6294,-690 1224.6294,-690 1224.6294,-690 1302.937,-690 1302.937,-690 1308.937,-690 1314.937,-696 1314.937,-702 1314.937,-702 1314.937,-714 1314.937,-714 1314.937,-720 1308.937,-726 1302.937,-726"/>
<text text-anchor="middle" x="1263.7832" y="-704.4" font-family="YaHei Consolas" font-size="12.00" fill="#ffffff">TransposeFolding</text>
</g>
<!-- 37&#45;&gt;38 -->
<g id="edge46" class="edge">
<title>37-&gt;38</title>
<path fill="none" stroke="#999999" d="M1127.0356,-708C1150.4806,-708 1178.0365,-708 1202.2455,-708"/>
<polygon fill="#999999" stroke="#999999" points="1202.3942,-711.5001 1212.3942,-708 1202.3942,-704.5001 1202.3942,-711.5001"/>
</g>
<!-- 39 -->
<g id="node40" class="node">
<title>39</title>
<path fill="#00bfff" stroke="#00bfff" d="M1472.7234,-726C1472.7234,-726 1440.7194,-726 1440.7194,-726 1434.7194,-726 1428.7194,-720 1428.7194,-714 1428.7194,-714 1428.7194,-702 1428.7194,-702 1428.7194,-696 1434.7194,-690 1440.7194,-690 1440.7194,-690 1472.7234,-690 1472.7234,-690 1478.7234,-690 1484.7234,-696 1484.7234,-702 1484.7234,-702 1484.7234,-714 1484.7234,-714 1484.7234,-720 1478.7234,-726 1472.7234,-726"/>
<text text-anchor="middle" x="1456.7214" y="-704.4" font-family="YaHei Consolas" font-size="12.00" fill="#ffffff">HloCSE</text>
</g>
<!-- 38&#45;&gt;39 -->
<g id="edge47" class="edge">
<title>38-&gt;39</title>
<path fill="none" stroke="#999999" d="M1314.9806,-708C1347.3941,-708 1388.6262,-708 1418.2519,-708"/>
<polygon fill="#999999" stroke="#999999" points="1418.6037,-711.5001 1428.6036,-708 1418.6036,-704.5001 1418.6037,-711.5001"/>
</g>
<!-- 39&#45;&gt;40 -->
<g id="edge102" class="edge">
<title>39-&gt;40</title>
<path fill="none" stroke="#999999" d="M1428.4312,-700.2122C1404.7479,-694.0061 1369.9634,-685.6171 1339.0852,-681 1221.7511,-663.4556 1191.4641,-662 1072.8256,-662 484.909,-662 484.909,-662 484.909,-662 352.0854,-662 317.9772,-662.9505 186.6604,-643 162.3277,-639.3032 135.5048,-632.8713 114.2851,-627.2123"/>
<polygon fill="#999999" stroke="#999999" points="114.9218,-623.7584 104.3538,-624.5118 113.085,-630.5132 114.9218,-623.7584"/>
</g>
<!-- 41 -->
<g id="node42" class="node">
<title>41</title>
<path fill="#00bfff" stroke="#00bfff" d="M352.1021,-634C352.1021,-634 206.4895,-634 206.4895,-634 200.4895,-634 194.4895,-628 194.4895,-622 194.4895,-622 194.4895,-610 194.4895,-610 194.4895,-604 200.4895,-598 206.4895,-598 206.4895,-598 352.1021,-598 352.1021,-598 358.1021,-598 364.1021,-604 364.1021,-610 364.1021,-610 364.1021,-622 364.1021,-622 364.1021,-628 358.1021,-634 352.1021,-634"/>
<text text-anchor="middle" x="279.2958" y="-612.4" font-family="YaHei Consolas" font-size="12.00" fill="#ffffff">WhileLoopTripCountAnnotator</text>
</g>
<!-- 40&#45;&gt;41 -->
<g id="edge48" class="edge">
<title>40-&gt;41</title>
<path fill="none" stroke="#999999" d="M104.5535,-616C125.64,-616 155.386,-616 184.3685,-616"/>
<polygon fill="#999999" stroke="#999999" points="184.5726,-619.5001 194.5726,-616 184.5726,-612.5001 184.5726,-619.5001"/>
</g>
<!-- 48 -->
<g id="node49" class="node">
<title>48</title>
<path fill="#00bfff" stroke="#00bfff" d="M117.2946,-542C117.2946,-542 33.3658,-542 33.3658,-542 27.3658,-542 21.3658,-536 21.3658,-530 21.3658,-530 21.3658,-518 21.3658,-518 21.3658,-512 27.3658,-506 33.3658,-506 33.3658,-506 117.2946,-506 117.2946,-506 123.2946,-506 129.2946,-512 129.2946,-518 129.2946,-518 129.2946,-530 129.2946,-530 129.2946,-536 123.2946,-542 117.2946,-542"/>
<text text-anchor="middle" x="75.3302" y="-520.4" font-family="YaHei Consolas" font-size="12.00" fill="#ffffff">GpusolverRewriter</text>
</g>
<!-- 40&#45;&gt;48 -->
<!-- 42 -->
<g id="node43" class="node">
<title>42</title>
<path fill="#00bfff" stroke="#00bfff" d="M522.0524,-634C522.0524,-634 447.7656,-634 447.7656,-634 441.7656,-634 435.7656,-628 435.7656,-622 435.7656,-622 435.7656,-610 435.7656,-610 435.7656,-604 441.7656,-598 447.7656,-598 447.7656,-598 522.0524,-598 522.0524,-598 528.0524,-598 534.0524,-604 534.0524,-610 534.0524,-610 534.0524,-622 534.0524,-622 534.0524,-628 528.0524,-634 522.0524,-634"/>
<text text-anchor="middle" x="484.909" y="-612.4" font-family="YaHei Consolas" font-size="12.00" fill="#ffffff">AllReduceFolder</text>
</g>
<!-- 41&#45;&gt;42 -->
<g id="edge49" class="edge">
<title>41-&gt;42</title>
<path fill="none" stroke="#999999" d="M364.1137,-616C384.7429,-616 406.3696,-616 425.5304,-616"/>
<polygon fill="#999999" stroke="#999999" points="425.6023,-619.5001 435.6023,-616 425.6023,-612.5001 425.6023,-619.5001"/>
</g>
<!-- 43 -->
<g id="node44" class="node">
<title>43</title>
<path fill="#00bfff" stroke="#00bfff" d="M727.6543,-634C727.6543,-634 630.0945,-634 630.0945,-634 624.0945,-634 618.0945,-628 618.0945,-622 618.0945,-622 618.0945,-610 618.0945,-610 618.0945,-604 624.0945,-598 630.0945,-598 630.0945,-598 727.6543,-598 727.6543,-598 733.6543,-598 739.6543,-604 739.6543,-610 739.6543,-610 739.6543,-622 739.6543,-622 739.6543,-628 733.6543,-634 727.6543,-634"/>
<text text-anchor="middle" x="678.8744" y="-612.4" font-family="YaHei Consolas" font-size="12.00" fill="#ffffff">ReduceScatterCreator</text>
</g>
<!-- 42&#45;&gt;43 -->
<g id="edge50" class="edge">
<title>42-&gt;43</title>
<path fill="none" stroke="#999999" d="M534.1054,-616C556.3981,-616 583.1816,-616 607.6167,-616"/>
<polygon fill="#999999" stroke="#999999" points="607.9252,-619.5001 617.9252,-616 607.9251,-612.5001 607.9252,-619.5001"/>
</g>
<!-- 44 -->
<g id="node45" class="node">
<title>44</title>
<path fill="#00bfff" stroke="#00bfff" d="M926.4716,-634C926.4716,-634 826.5604,-634 826.5604,-634 820.5604,-634 814.5604,-628 814.5604,-622 814.5604,-622 814.5604,-610 814.5604,-610 814.5604,-604 820.5604,-598 826.5604,-598 826.5604,-598 926.4716,-598 926.4716,-598 932.4716,-598 938.4716,-604 938.4716,-610 938.4716,-610 938.4716,-622 938.4716,-622 938.4716,-628 932.4716,-634 926.4716,-634"/>
<text text-anchor="middle" x="876.516" y="-612.4" font-family="YaHei Consolas" font-size="12.00" fill="#ffffff">AllReduceReassociate</text>
</g>
<!-- 43&#45;&gt;44 -->
<g id="edge51" class="edge">
<title>43-&gt;44</title>
<path fill="none" stroke="#999999" d="M739.5166,-616C759.8972,-616 782.838,-616 804.0347,-616"/>
<polygon fill="#999999" stroke="#999999" points="804.2814,-619.5001 814.2814,-616 804.2813,-612.5001 804.2814,-619.5001"/>
</g>
<!-- 45 -->
<g id="node46" class="node">
<title>45</title>
<path fill="#00bfff" stroke="#00bfff" d="M1116.7944,-634C1116.7944,-634 1028.8568,-634 1028.8568,-634 1022.8568,-634 1016.8568,-628 1016.8568,-622 1016.8568,-622 1016.8568,-610 1016.8568,-610 1016.8568,-604 1022.8568,-598 1028.8568,-598 1028.8568,-598 1116.7944,-598 1116.7944,-598 1122.7944,-598 1128.7944,-604 1128.7944,-610 1128.7944,-610 1128.7944,-622 1128.7944,-622 1128.7944,-628 1122.7944,-634 1116.7944,-634"/>
<text text-anchor="middle" x="1072.8256" y="-612.4" font-family="YaHei Consolas" font-size="12.00" fill="#ffffff">AlgebraicSimplifier</text>
</g>
<!-- 44&#45;&gt;45 -->
<g id="edge52" class="edge">
<title>44-&gt;45</title>
<path fill="none" stroke="#999999" d="M938.6296,-616C960.2543,-616 984.5893,-616 1006.5392,-616"/>
<polygon fill="#999999" stroke="#999999" points="1006.7682,-619.5001 1016.7682,-616 1006.7682,-612.5001 1006.7682,-619.5001"/>
</g>
<!-- 46 -->
<g id="node47" class="node">
<title>46</title>
<path fill="#00bfff" stroke="#00bfff" d="M1326.8877,-634C1326.8877,-634 1200.6787,-634 1200.6787,-634 1194.6787,-634 1188.6787,-628 1188.6787,-622 1188.6787,-622 1188.6787,-610 1188.6787,-610 1188.6787,-604 1194.6787,-598 1200.6787,-598 1200.6787,-598 1326.8877,-598 1326.8877,-598 1332.8877,-598 1338.8877,-604 1338.8877,-610 1338.8877,-610 1338.8877,-622 1338.8877,-622 1338.8877,-628 1332.8877,-634 1326.8877,-634"/>
<text text-anchor="middle" x="1263.7832" y="-612.4" font-family="YaHei Consolas" font-size="12.00" fill="#ffffff">AllGatherBroadcastReorder</text>
</g>
<!-- 45&#45;&gt;46 -->
<g id="edge53" class="edge">
<title>45-&gt;46</title>
<path fill="none" stroke="#999999" d="M1128.8289,-616C1144.322,-616 1161.4983,-616 1178.2607,-616"/>
<polygon fill="#999999" stroke="#999999" points="1178.6255,-619.5001 1188.6254,-616 1178.6254,-612.5001 1178.6255,-619.5001"/>
</g>
<!-- 47 -->
<g id="node48" class="node">
<title>47</title>
<path fill="#00bfff" stroke="#00bfff" d="M1480.6894,-634C1480.6894,-634 1432.7534,-634 1432.7534,-634 1426.7534,-634 1420.7534,-628 1420.7534,-622 1420.7534,-622 1420.7534,-610 1420.7534,-610 1420.7534,-604 1426.7534,-598 1432.7534,-598 1432.7534,-598 1480.6894,-598 1480.6894,-598 1486.6894,-598 1492.6894,-604 1492.6894,-610 1492.6894,-610 1492.6894,-622 1492.6894,-622 1492.6894,-628 1486.6894,-634 1480.6894,-634"/>
<text text-anchor="middle" x="1456.7214" y="-612.4" font-family="YaHei Consolas" font-size="12.00" fill="#ffffff">HloVerifier</text>
</g>
<!-- 46&#45;&gt;47 -->
<g id="edge54" class="edge">
<title>46-&gt;47</title>
<path fill="none" stroke="#999999" d="M1338.9306,-616C1363.0268,-616 1388.9912,-616 1410.3947,-616"/>
<polygon fill="#999999" stroke="#999999" points="1410.5073,-619.5001 1420.5073,-616 1410.5073,-612.5001 1410.5073,-619.5001"/>
</g>
<!-- 47&#45;&gt;48 -->
<g id="edge103" class="edge">
<title>47-&gt;48</title>
<path fill="none" stroke="#999999" d="M1420.6966,-606.2113C1397.5531,-600.3016 1366.7512,-593.1368 1339.0852,-589 1221.7511,-571.4556 1191.4641,-570 1072.8256,-570 484.909,-570 484.909,-570 484.909,-570 352.0854,-570 317.9772,-570.9505 186.6604,-551 171.1759,-548.6475 154.683,-545.1874 139.2674,-541.5237"/>
<polygon fill="#999999" stroke="#999999" points="139.8587,-538.0654 129.3142,-539.0963 138.2001,-544.8661 139.8587,-538.0654"/>
</g>
<!-- 49 -->
<g id="node50" class="node">
<title>49</title>
<path fill="#00bfff" stroke="#00bfff" d="M319.4404,-542C319.4404,-542 239.1512,-542 239.1512,-542 233.1512,-542 227.1512,-536 227.1512,-530 227.1512,-530 227.1512,-518 227.1512,-518 227.1512,-512 233.1512,-506 239.1512,-506 239.1512,-506 319.4404,-506 319.4404,-506 325.4404,-506 331.4404,-512 331.4404,-518 331.4404,-518 331.4404,-530 331.4404,-530 331.4404,-536 325.4404,-542 319.4404,-542"/>
<text text-anchor="middle" x="279.2958" y="-520.4" font-family="YaHei Consolas" font-size="12.00" fill="#ffffff">GpuConvRewriter</text>
</g>
<!-- 48&#45;&gt;49 -->
<g id="edge55" class="edge">
<title>48-&gt;49</title>
<path fill="none" stroke="#999999" d="M129.4537,-524C156.3621,-524 189.0194,-524 216.9694,-524"/>
<polygon fill="#999999" stroke="#999999" points="217.0345,-527.5001 227.0345,-524 217.0344,-520.5001 217.0345,-527.5001"/>
</g>
<!-- 56 -->
<g id="node57" class="node">
<title>56</title>
<path fill="#00bfff" stroke="#00bfff" d="M119.299,-450C119.299,-450 31.3614,-450 31.3614,-450 25.3614,-450 19.3614,-444 19.3614,-438 19.3614,-438 19.3614,-426 19.3614,-426 19.3614,-420 25.3614,-414 31.3614,-414 31.3614,-414 119.299,-414 119.299,-414 125.299,-414 131.299,-420 131.299,-426 131.299,-426 131.299,-438 131.299,-438 131.299,-444 125.299,-450 119.299,-450"/>
<text text-anchor="middle" x="75.3302" y="-428.4" font-family="YaHei Consolas" font-size="12.00" fill="#ffffff">AlgebraicSimplifier</text>
</g>
<!-- 48&#45;&gt;56 -->
<!-- 50 -->
<g id="node51" class="node">
<title>50</title>
<path fill="#00bfff" stroke="#00bfff" d="M545.0578,-542C545.0578,-542 424.7602,-542 424.7602,-542 418.7602,-542 412.7602,-536 412.7602,-530 412.7602,-530 412.7602,-518 412.7602,-518 412.7602,-512 418.7602,-506 424.7602,-506 424.7602,-506 545.0578,-506 545.0578,-506 551.0578,-506 557.0578,-512 557.0578,-518 557.0578,-518 557.0578,-530 557.0578,-530 557.0578,-536 551.0578,-542 545.0578,-542"/>
<text text-anchor="middle" x="484.909" y="-520.4" font-family="YaHei Consolas" font-size="12.00" fill="#ffffff">CudnnFusedConvRewriter</text>
</g>
<!-- 49&#45;&gt;50 -->
<g id="edge56" class="edge">
<title>49-&gt;50</title>
<path fill="none" stroke="#999999" d="M331.4465,-524C352.9958,-524 378.5037,-524 402.4727,-524"/>
<polygon fill="#999999" stroke="#999999" points="402.6349,-527.5001 412.6349,-524 402.6349,-520.5001 402.6349,-527.5001"/>
</g>
<!-- 51 -->
<g id="node52" class="node">
<title>51</title>
<path fill="#00bfff" stroke="#00bfff" d="M747.8496,-542C747.8496,-542 609.8992,-542 609.8992,-542 603.8992,-542 597.8992,-536 597.8992,-530 597.8992,-530 597.8992,-518 597.8992,-518 597.8992,-512 603.8992,-506 609.8992,-506 609.8992,-506 747.8496,-506 747.8496,-506 753.8496,-506 759.8496,-512 759.8496,-518 759.8496,-518 759.8496,-530 759.8496,-530 759.8496,-536 753.8496,-542 747.8496,-542"/>
<text text-anchor="middle" x="678.8744" y="-520.4" font-family="YaHei Consolas" font-size="12.00" fill="#ffffff">GpuConvPaddingLegalization</text>
</g>
<!-- 50&#45;&gt;51 -->
<g id="edge57" class="edge">
<title>50-&gt;51</title>
<path fill="none" stroke="#999999" d="M557.1346,-524C567.0707,-524 577.3785,-524 587.6013,-524"/>
<polygon fill="#999999" stroke="#999999" points="587.779,-527.5001 597.779,-524 587.7789,-520.5001 587.779,-527.5001"/>
</g>
<!-- 52 -->
<g id="node53" class="node">
<title>52</title>
<path fill="#00bfff" stroke="#00bfff" d="M938.3564,-542C938.3564,-542 814.6756,-542 814.6756,-542 808.6756,-542 802.6756,-536 802.6756,-530 802.6756,-530 802.6756,-518 802.6756,-518 802.6756,-512 808.6756,-506 814.6756,-506 814.6756,-506 938.3564,-506 938.3564,-506 944.3564,-506 950.3564,-512 950.3564,-518 950.3564,-518 950.3564,-530 950.3564,-530 950.3564,-536 944.3564,-542 938.3564,-542"/>
<text text-anchor="middle" x="876.516" y="-520.4" font-family="YaHei Consolas" font-size="12.00" fill="#ffffff">CudnnPadForConvolutions</text>
</g>
<!-- 51&#45;&gt;52 -->
<g id="edge58" class="edge">
<title>51-&gt;52</title>
<path fill="none" stroke="#999999" d="M760.1184,-524C770.7687,-524 781.7003,-524 792.397,-524"/>
<polygon fill="#999999" stroke="#999999" points="792.5637,-527.5001 802.5636,-524 792.5636,-520.5001 792.5637,-527.5001"/>
</g>
<!-- 53 -->
<g id="node54" class="node">
<title>53</title>
<path fill="#00bfff" stroke="#00bfff" d="M1140.6371,-542C1140.6371,-542 1005.0141,-542 1005.0141,-542 999.0141,-542 993.0141,-536 993.0141,-530 993.0141,-530 993.0141,-518 993.0141,-518 993.0141,-512 999.0141,-506 1005.0141,-506 1005.0141,-506 1140.6371,-506 1140.6371,-506 1146.6371,-506 1152.6371,-512 1152.6371,-518 1152.6371,-518 1152.6371,-530 1152.6371,-530 1152.6371,-536 1146.6371,-542 1140.6371,-542"/>
<text text-anchor="middle" x="1072.8256" y="-520.4" font-family="YaHei Consolas" font-size="12.00" fill="#ffffff">CudnnVectorizeConvolutions</text>
</g>
<!-- 52&#45;&gt;53 -->
<g id="edge59" class="edge">
<title>52-&gt;53</title>
<path fill="none" stroke="#999999" d="M950.4525,-524C960.9952,-524 971.9354,-524 982.7442,-524"/>
<polygon fill="#999999" stroke="#999999" points="983.0498,-527.5001 993.0497,-524 983.0497,-520.5001 983.0498,-527.5001"/>
</g>
<!-- 54 -->
<g id="node55" class="node">
<title>54</title>
<path fill="#00bfff" stroke="#00bfff" d="M1285.7684,-542C1285.7684,-542 1241.798,-542 1241.798,-542 1235.798,-542 1229.798,-536 1229.798,-530 1229.798,-530 1229.798,-518 1229.798,-518 1229.798,-512 1235.798,-506 1241.798,-506 1241.798,-506 1285.7684,-506 1285.7684,-506 1291.7684,-506 1297.7684,-512 1297.7684,-518 1297.7684,-518 1297.7684,-530 1297.7684,-530 1297.7684,-536 1291.7684,-542 1285.7684,-542"/>
<text text-anchor="middle" x="1263.7832" y="-520.4" font-family="YaHei Consolas" font-size="12.00" fill="#ffffff">CallInliner</text>
</g>
<!-- 53&#45;&gt;54 -->
<g id="edge60" class="edge">
<title>53-&gt;54</title>
<path fill="none" stroke="#999999" d="M1152.7024,-524C1175.4,-524 1199.3066,-524 1219.1029,-524"/>
<polygon fill="#999999" stroke="#999999" points="1219.3474,-527.5001 1229.3473,-524 1219.3473,-520.5001 1219.3474,-527.5001"/>
</g>
<!-- 55 -->
<g id="node56" class="node">
<title>55</title>
<path fill="#00bfff" stroke="#00bfff" d="M1490.8756,-542C1490.8756,-542 1422.5672,-542 1422.5672,-542 1416.5672,-542 1410.5672,-536 1410.5672,-530 1410.5672,-530 1410.5672,-518 1410.5672,-518 1410.5672,-512 1416.5672,-506 1422.5672,-506 1422.5672,-506 1490.8756,-506 1490.8756,-506 1496.8756,-506 1502.8756,-512 1502.8756,-518 1502.8756,-518 1502.8756,-530 1502.8756,-530 1502.8756,-536 1496.8756,-542 1490.8756,-542"/>
<text text-anchor="middle" x="1456.7214" y="-520.4" font-family="YaHei Consolas" font-size="12.00" fill="#ffffff">TupleSimplifier</text>
</g>
<!-- 54&#45;&gt;55 -->
<g id="edge61" class="edge">
<title>54-&gt;55</title>
<path fill="none" stroke="#999999" d="M1297.8326,-524C1326.1659,-524 1367.0884,-524 1400.3066,-524"/>
<polygon fill="#999999" stroke="#999999" points="1400.3459,-527.5001 1410.3459,-524 1400.3458,-520.5001 1400.3459,-527.5001"/>
</g>
<!-- 55&#45;&gt;56 -->
<g id="edge104" class="edge">
<title>55-&gt;56</title>
<path fill="none" stroke="#999999" d="M1410.3809,-511.6241C1388.8491,-506.3235 1362.8137,-500.548 1339.0852,-497 1221.7511,-479.4556 1191.4641,-478 1072.8256,-478 484.909,-478 484.909,-478 484.909,-478 352.0854,-478 317.9772,-478.9505 186.6604,-459 171.8826,-456.7549 156.1863,-453.5009 141.3844,-450.0239"/>
<polygon fill="#999999" stroke="#999999" points="141.8443,-446.5345 131.3022,-447.5908 140.2021,-453.3391 141.8443,-446.5345"/>
</g>
<!-- 57 -->
<g id="node58" class="node">
<title>57</title>
<path fill="#00bfff" stroke="#00bfff" d="M324.2998,-450C324.2998,-450 234.2918,-450 234.2918,-450 228.2918,-450 222.2918,-444 222.2918,-438 222.2918,-438 222.2918,-426 222.2918,-426 222.2918,-420 228.2918,-414 234.2918,-414 234.2918,-414 324.2998,-414 324.2998,-414 330.2998,-414 336.2998,-420 336.2998,-426 336.2998,-426 336.2998,-438 336.2998,-438 336.2998,-444 330.2998,-450 324.2998,-450"/>
<text text-anchor="middle" x="279.2958" y="-428.4" font-family="YaHei Consolas" font-size="12.00" fill="#ffffff">HloConstantFolding</text>
</g>
<!-- 56&#45;&gt;57 -->
<g id="edge62" class="edge">
<title>56-&gt;57</title>
<path fill="none" stroke="#999999" d="M131.3345,-432C156.2175,-432 185.7193,-432 211.8074,-432"/>
<polygon fill="#999999" stroke="#999999" points="211.9972,-435.5001 221.9972,-432 211.9972,-428.5001 211.9972,-435.5001"/>
</g>
<!-- 64 -->
<g id="node65" class="node">
<title>64</title>
<path fill="#00bfff" stroke="#00bfff" d="M99.2982,-358C99.2982,-358 51.3622,-358 51.3622,-358 45.3622,-358 39.3622,-352 39.3622,-346 39.3622,-346 39.3622,-334 39.3622,-334 39.3622,-328 45.3622,-322 51.3622,-322 51.3622,-322 99.2982,-322 99.2982,-322 105.2982,-322 111.2982,-328 111.2982,-334 111.2982,-334 111.2982,-346 111.2982,-346 111.2982,-352 105.2982,-358 99.2982,-358"/>
<text text-anchor="middle" x="75.3302" y="-336.4" font-family="YaHei Consolas" font-size="12.00" fill="#ffffff">HloVerifier</text>
</g>
<!-- 56&#45;&gt;64 -->
<!-- 58 -->
<g id="node59" class="node">
<title>58</title>
<path fill="#00bfff" stroke="#00bfff" d="M522.7219,-450C522.7219,-450 447.0961,-450 447.0961,-450 441.0961,-450 435.0961,-444 435.0961,-438 435.0961,-438 435.0961,-426 435.0961,-426 435.0961,-420 441.0961,-414 447.0961,-414 447.0961,-414 522.7219,-414 522.7219,-414 528.7219,-414 534.7219,-420 534.7219,-426 534.7219,-426 534.7219,-438 534.7219,-438 534.7219,-444 528.7219,-450 522.7219,-450"/>
<text text-anchor="middle" x="484.909" y="-428.4" font-family="YaHei Consolas" font-size="12.00" fill="#ffffff">FlattenCallGraph</text>
</g>
<!-- 57&#45;&gt;58 -->
<g id="edge63" class="edge">
<title>57-&gt;58</title>
<path fill="none" stroke="#999999" d="M336.5705,-432C364.0863,-432 397.0554,-432 424.9167,-432"/>
<polygon fill="#999999" stroke="#999999" points="424.9308,-435.5001 434.9307,-432 424.9307,-428.5001 424.9308,-435.5001"/>
</g>
<!-- 59 -->
<g id="node60" class="node">
<title>59</title>
<path fill="#00bfff" stroke="#00bfff" d="M730.8572,-450C730.8572,-450 626.8916,-450 626.8916,-450 620.8916,-450 614.8916,-444 614.8916,-438 614.8916,-438 614.8916,-426 614.8916,-426 614.8916,-420 620.8916,-414 626.8916,-414 626.8916,-414 730.8572,-414 730.8572,-414 736.8572,-414 742.8572,-420 742.8572,-426 742.8572,-426 742.8572,-438 742.8572,-438 742.8572,-444 736.8572,-450 730.8572,-450"/>
<text text-anchor="middle" x="678.8744" y="-428.4" font-family="YaHei Consolas" font-size="12.00" fill="#ffffff">GpuLayoutAssignment</text>
</g>
<!-- 58&#45;&gt;59 -->
<g id="edge64" class="edge">
<title>58-&gt;59</title>
<path fill="none" stroke="#999999" d="M534.608,-432C555.8253,-432 581.0401,-432 604.4087,-432"/>
<polygon fill="#999999" stroke="#999999" points="604.643,-435.5001 614.6429,-432 604.6429,-428.5001 604.643,-435.5001"/>
</g>
<!-- 60 -->
<g id="node61" class="node">
<title>60</title>
<path fill="#00bfff" stroke="#00bfff" d="M925.3368,-450C925.3368,-450 827.6952,-450 827.6952,-450 821.6952,-450 815.6952,-444 815.6952,-438 815.6952,-438 815.6952,-426 815.6952,-426 815.6952,-420 821.6952,-414 827.6952,-414 827.6952,-414 925.3368,-414 925.3368,-414 931.3368,-414 937.3368,-420 937.3368,-426 937.3368,-426 937.3368,-438 937.3368,-438 937.3368,-444 931.3368,-450 925.3368,-450"/>
<text text-anchor="middle" x="876.516" y="-428.4" font-family="YaHei Consolas" font-size="12.00" fill="#ffffff">CublasPadForGemms</text>
</g>
<!-- 59&#45;&gt;60 -->
<g id="edge65" class="edge">
<title>59-&gt;60</title>
<path fill="none" stroke="#999999" d="M743.043,-432C763.0028,-432 785.1221,-432 805.5195,-432"/>
<polygon fill="#999999" stroke="#999999" points="805.6918,-435.5001 815.6917,-432 805.6917,-428.5001 805.6918,-435.5001"/>
</g>
<!-- 61 -->
<g id="node62" class="node">
<title>61</title>
<path fill="#00bfff" stroke="#00bfff" d="M1121.6464,-450C1121.6464,-450 1024.0048,-450 1024.0048,-450 1018.0048,-450 1012.0048,-444 1012.0048,-438 1012.0048,-438 1012.0048,-426 1012.0048,-426 1012.0048,-420 1018.0048,-414 1024.0048,-414 1024.0048,-414 1121.6464,-414 1121.6464,-414 1127.6464,-414 1133.6464,-420 1133.6464,-426 1133.6464,-426 1133.6464,-438 1133.6464,-438 1133.6464,-444 1127.6464,-450 1121.6464,-450"/>
<text text-anchor="middle" x="1072.8256" y="-428.4" font-family="YaHei Consolas" font-size="12.00" fill="#ffffff">CublasPadForGemms</text>
</g>
<!-- 60&#45;&gt;61 -->
<g id="edge66" class="edge">
<title>60-&gt;61</title>
<path fill="none" stroke="#999999" d="M937.2852,-432C957.7038,-432 980.66,-432 1001.7954,-432"/>
<polygon fill="#999999" stroke="#999999" points="1002.0056,-435.5001 1012.0056,-432 1002.0056,-428.5001 1002.0056,-435.5001"/>
</g>
<!-- 62 -->
<g id="node63" class="node">
<title>62</title>
<path fill="#00bfff" stroke="#00bfff" d="M1312.604,-450C1312.604,-450 1214.9624,-450 1214.9624,-450 1208.9624,-450 1202.9624,-444 1202.9624,-438 1202.9624,-438 1202.9624,-426 1202.9624,-426 1202.9624,-420 1208.9624,-414 1214.9624,-414 1214.9624,-414 1312.604,-414 1312.604,-414 1318.604,-414 1324.604,-420 1324.604,-426 1324.604,-426 1324.604,-438 1324.604,-438 1324.604,-444 1318.604,-450 1312.604,-450"/>
<text text-anchor="middle" x="1263.7832" y="-428.4" font-family="YaHei Consolas" font-size="12.00" fill="#ffffff">CublasPadForGemms</text>
</g>
<!-- 61&#45;&gt;62 -->
<g id="edge67" class="edge">
<title>61-&gt;62</title>
<path fill="none" stroke="#999999" d="M1133.5082,-432C1152.3869,-432 1173.3682,-432 1192.8802,-432"/>
<polygon fill="#999999" stroke="#999999" points="1192.9309,-435.5001 1202.9309,-432 1192.9308,-428.5001 1192.9309,-435.5001"/>
</g>
<!-- 63 -->
<g id="node64" class="node">
<title>63</title>
<path fill="#00bfff" stroke="#00bfff" d="M1501.7254,-450C1501.7254,-450 1411.7174,-450 1411.7174,-450 1405.7174,-450 1399.7174,-444 1399.7174,-438 1399.7174,-438 1399.7174,-426 1399.7174,-426 1399.7174,-420 1405.7174,-414 1411.7174,-414 1411.7174,-414 1501.7254,-414 1501.7254,-414 1507.7254,-414 1513.7254,-420 1513.7254,-426 1513.7254,-426 1513.7254,-438 1513.7254,-438 1513.7254,-444 1507.7254,-450 1501.7254,-450"/>
<text text-anchor="middle" x="1456.7214" y="-428.4" font-family="YaHei Consolas" font-size="12.00" fill="#ffffff">HloConstantFolding</text>
</g>
<!-- 62&#45;&gt;63 -->
<g id="edge68" class="edge">
<title>62-&gt;63</title>
<path fill="none" stroke="#999999" d="M1324.5652,-432C1345.1637,-432 1368.2892,-432 1389.3682,-432"/>
<polygon fill="#999999" stroke="#999999" points="1389.5317,-435.5001 1399.5317,-432 1389.5316,-428.5001 1389.5317,-435.5001"/>
</g>
<!-- 63&#45;&gt;64 -->
<g id="edge105" class="edge">
<title>63-&gt;64</title>
<path fill="none" stroke="#999999" d="M1399.6201,-417.029C1380.4961,-412.5153 1358.9799,-407.9748 1339.0852,-405 1221.7511,-387.4556 1191.4641,-386 1072.8256,-386 484.909,-386 484.909,-386 484.909,-386 352.0854,-386 317.9772,-386.9505 186.6604,-367 164.8773,-363.6906 141.0985,-358.1891 121.1307,-353.0126"/>
<polygon fill="#999999" stroke="#999999" points="121.9269,-349.6029 111.3643,-350.4289 120.1366,-356.3701 121.9269,-349.6029"/>
</g>
<!-- 65 -->
<g id="node66" class="node">
<title>65</title>
<path fill="#00bfff" stroke="#00bfff" d="M360.0668,-358C360.0668,-358 198.5248,-358 198.5248,-358 192.5248,-358 186.5248,-352 186.5248,-346 186.5248,-346 186.5248,-334 186.5248,-334 186.5248,-328 192.5248,-322 198.5248,-322 198.5248,-322 360.0668,-322 360.0668,-322 366.0668,-322 372.0668,-328 372.0668,-334 372.0668,-334 372.0668,-346 372.0668,-346 372.0668,-352 366.0668,-358 360.0668,-358"/>
<text text-anchor="middle" x="279.2958" y="-336.4" font-family="YaHei Consolas" font-size="12.00" fill="#ffffff">ReductionDegenerateDimRemover</text>
</g>
<!-- 64&#45;&gt;65 -->
<g id="edge69" class="edge">
<title>64-&gt;65</title>
<path fill="none" stroke="#999999" d="M111.3256,-340C129.6382,-340 152.9255,-340 176.2847,-340"/>
<polygon fill="#999999" stroke="#999999" points="176.2859,-343.5001 186.2858,-340 176.2858,-336.5001 176.2859,-343.5001"/>
</g>
<!-- 72 -->
<g id="node73" class="node">
<title>72</title>
<path fill="#00bfff" stroke="#00bfff" d="M108.4685,-266C108.4685,-266 42.1919,-266 42.1919,-266 36.1919,-266 30.1919,-260 30.1919,-254 30.1919,-254 30.1919,-242 30.1919,-242 30.1919,-236 36.1919,-230 42.1919,-230 42.1919,-230 108.4685,-230 108.4685,-230 114.4685,-230 120.4685,-236 120.4685,-242 120.4685,-242 120.4685,-254 120.4685,-254 120.4685,-260 114.4685,-266 108.4685,-266"/>
<text text-anchor="middle" x="75.3302" y="-244.4" font-family="YaHei Consolas" font-size="12.00" fill="#ffffff">GemmRewriter</text>
</g>
<!-- 64&#45;&gt;72 -->
<!-- 66 -->
<g id="node67" class="node">
<title>66</title>
<path fill="#00bfff" stroke="#00bfff" d="M549.8646,-358C549.8646,-358 419.9534,-358 419.9534,-358 413.9534,-358 407.9534,-352 407.9534,-346 407.9534,-346 407.9534,-334 407.9534,-334 407.9534,-328 413.9534,-322 419.9534,-322 419.9534,-322 549.8646,-322 549.8646,-322 555.8646,-322 561.8646,-328 561.8646,-334 561.8646,-334 561.8646,-346 561.8646,-346 561.8646,-352 555.8646,-358 549.8646,-358"/>
<text text-anchor="middle" x="484.909" y="-336.4" font-family="YaHei Consolas" font-size="12.00" fill="#ffffff">ReductionLayoutNormalizer</text>
</g>
<!-- 65&#45;&gt;66 -->
<g id="edge70" class="edge">
<title>65-&gt;66</title>
<path fill="none" stroke="#999999" d="M372.1769,-340C380.6509,-340 389.2157,-340 397.6381,-340"/>
<polygon fill="#999999" stroke="#999999" points="397.8253,-343.5001 407.8253,-340 397.8252,-336.5001 397.8253,-343.5001"/>
</g>
<!-- 67 -->
<g id="node68" class="node">
<title>67</title>
<path fill="#00bfff" stroke="#00bfff" d="M745.8404,-358C745.8404,-358 611.9084,-358 611.9084,-358 605.9084,-358 599.9084,-352 599.9084,-346 599.9084,-346 599.9084,-334 599.9084,-334 599.9084,-328 605.9084,-322 611.9084,-322 611.9084,-322 745.8404,-322 745.8404,-322 751.8404,-322 757.8404,-328 757.8404,-334 757.8404,-334 757.8404,-346 757.8404,-346 757.8404,-352 751.8404,-358 745.8404,-358"/>
<text text-anchor="middle" x="678.8744" y="-336.4" font-family="YaHei Consolas" font-size="12.00" fill="#ffffff">ReductionDimensionGrouper</text>
</g>
<!-- 66&#45;&gt;67 -->
<g id="edge71" class="edge">
<title>66-&gt;67</title>
<path fill="none" stroke="#999999" d="M562.1266,-340C571.1073,-340 580.3242,-340 589.4512,-340"/>
<polygon fill="#999999" stroke="#999999" points="589.7004,-343.5001 599.7004,-340 589.7004,-336.5001 589.7004,-343.5001"/>
</g>
<!-- 68 -->
<g id="node69" class="node">
<title>68</title>
<path fill="#00bfff" stroke="#00bfff" d="M914.6742,-358C914.6742,-358 838.3578,-358 838.3578,-358 832.3578,-358 826.3578,-352 826.3578,-346 826.3578,-346 826.3578,-334 826.3578,-334 826.3578,-328 832.3578,-322 838.3578,-322 838.3578,-322 914.6742,-322 914.6742,-322 920.6742,-322 926.6742,-328 926.6742,-334 926.6742,-334 926.6742,-346 926.6742,-346 926.6742,-352 920.6742,-358 914.6742,-358"/>
<text text-anchor="middle" x="876.516" y="-336.4" font-family="YaHei Consolas" font-size="12.00" fill="#ffffff">ReductionSplitter</text>
</g>
<!-- 67&#45;&gt;68 -->
<g id="edge72" class="edge">
<title>67-&gt;68</title>
<path fill="none" stroke="#999999" d="M758.124,-340C777.4254,-340 797.7645,-340 816.0345,-340"/>
<polygon fill="#999999" stroke="#999999" points="816.2393,-343.5001 826.2393,-340 816.2393,-336.5001 816.2393,-343.5001"/>
</g>
<!-- 69 -->
<g id="node70" class="node">
<title>69</title>
<path fill="#00bfff" stroke="#00bfff" d="M1135.772,-358C1135.772,-358 1009.8792,-358 1009.8792,-358 1003.8792,-358 997.8792,-352 997.8792,-346 997.8792,-346 997.8792,-334 997.8792,-334 997.8792,-328 1003.8792,-322 1009.8792,-322 1009.8792,-322 1135.772,-322 1135.772,-322 1141.772,-322 1147.772,-328 1147.772,-334 1147.772,-334 1147.772,-346 1147.772,-346 1147.772,-352 1141.772,-358 1135.772,-358"/>
<text text-anchor="middle" x="1072.8256" y="-336.4" font-family="YaHei Consolas" font-size="12.00" fill="#ffffff">GpuTreeReductionRewriter</text>
</g>
<!-- 68&#45;&gt;69 -->
<g id="edge73" class="edge">
<title>68-&gt;69</title>
<path fill="none" stroke="#999999" d="M926.8157,-340C945.3646,-340 966.9323,-340 987.7069,-340"/>
<polygon fill="#999999" stroke="#999999" points="987.825,-343.5001 997.8249,-340 987.8249,-336.5001 987.825,-343.5001"/>
</g>
<!-- 70 -->
<g id="node71" class="node">
<title>70</title>
<path fill="#00bfff" stroke="#00bfff" d="M1307.752,-358C1307.752,-358 1219.8144,-358 1219.8144,-358 1213.8144,-358 1207.8144,-352 1207.8144,-346 1207.8144,-346 1207.8144,-334 1207.8144,-334 1207.8144,-328 1213.8144,-322 1219.8144,-322 1219.8144,-322 1307.752,-322 1307.752,-322 1313.752,-322 1319.752,-328 1319.752,-334 1319.752,-334 1319.752,-346 1319.752,-346 1319.752,-352 1313.752,-358 1307.752,-358"/>
<text text-anchor="middle" x="1263.7832" y="-336.4" font-family="YaHei Consolas" font-size="12.00" fill="#ffffff">AlgebraicSimplifier</text>
</g>
<!-- 69&#45;&gt;70 -->
<g id="edge74" class="edge">
<title>69-&gt;70</title>
<path fill="none" stroke="#999999" d="M1148.023,-340C1164.2899,-340 1181.3803,-340 1197.2854,-340"/>
<polygon fill="#999999" stroke="#999999" points="1197.5456,-343.5001 1207.5456,-340 1197.5456,-336.5001 1197.5456,-343.5001"/>
</g>
<!-- 71 -->
<g id="node72" class="node">
<title>71</title>
<path fill="#00bfff" stroke="#00bfff" d="M1495.8752,-358C1495.8752,-358 1417.5676,-358 1417.5676,-358 1411.5676,-358 1405.5676,-352 1405.5676,-346 1405.5676,-346 1405.5676,-334 1405.5676,-334 1405.5676,-328 1411.5676,-322 1417.5676,-322 1417.5676,-322 1495.8752,-322 1495.8752,-322 1501.8752,-322 1507.8752,-328 1507.8752,-334 1507.8752,-334 1507.8752,-346 1507.8752,-346 1507.8752,-352 1501.8752,-358 1495.8752,-358"/>
<text text-anchor="middle" x="1456.7214" y="-336.4" font-family="YaHei Consolas" font-size="12.00" fill="#ffffff">TransposeFolding</text>
</g>
<!-- 70&#45;&gt;71 -->
<g id="edge75" class="edge">
<title>70-&gt;71</title>
<path fill="none" stroke="#999999" d="M1319.8481,-340C1343.5049,-340 1371.1184,-340 1395.3223,-340"/>
<polygon fill="#999999" stroke="#999999" points="1395.4653,-343.5001 1405.4653,-340 1395.4652,-336.5001 1395.4653,-343.5001"/>
</g>
<!-- 71&#45;&gt;72 -->
<g id="edge106" class="edge">
<title>71-&gt;72</title>
<path fill="none" stroke="#999999" d="M1405.5139,-326.4369C1384.9963,-321.4783 1361.0522,-316.2846 1339.0852,-313 1221.7511,-295.4556 1191.4641,-294 1072.8256,-294 484.909,-294 484.909,-294 484.909,-294 352.0854,-294 317.9772,-294.9505 186.6604,-275 168.2511,-272.2031 148.4164,-267.8407 130.6613,-263.4319"/>
<polygon fill="#999999" stroke="#999999" points="131.0282,-259.9139 120.4741,-260.8422 129.3035,-266.6981 131.0282,-259.9139"/>
</g>
<!-- 73 -->
<g id="node74" class="node">
<title>73</title>
<path fill="#00bfff" stroke="#00bfff" d="M355.2534,-266C355.2534,-266 203.3382,-266 203.3382,-266 197.3382,-266 191.3382,-260 191.3382,-254 191.3382,-254 191.3382,-242 191.3382,-242 191.3382,-236 197.3382,-230 203.3382,-230 203.3382,-230 355.2534,-230 355.2534,-230 361.2534,-230 367.2534,-236 367.2534,-242 367.2534,-242 367.2534,-254 367.2534,-254 367.2534,-260 361.2534,-266 355.2534,-266"/>
<text text-anchor="middle" x="279.2958" y="-244.4" font-family="YaHei Consolas" font-size="12.00" fill="#ffffff">GemmBroadcastFoldingRewriter</text>
</g>
<!-- 72&#45;&gt;73 -->
<g id="edge76" class="edge">
<title>72-&gt;73</title>
<path fill="none" stroke="#999999" d="M120.5968,-248C138.53,-248 159.8939,-248 181.0436,-248"/>
<polygon fill="#999999" stroke="#999999" points="181.0615,-251.5001 191.0615,-248 181.0614,-244.5001 181.0615,-251.5001"/>
</g>
<!-- 80 -->
<g id="node81" class="node">
<title>80</title>
<path fill="#00bfff" stroke="#00bfff" d="M99.2982,-174C99.2982,-174 51.3622,-174 51.3622,-174 45.3622,-174 39.3622,-168 39.3622,-162 39.3622,-162 39.3622,-150 39.3622,-150 39.3622,-144 45.3622,-138 51.3622,-138 51.3622,-138 99.2982,-138 99.2982,-138 105.2982,-138 111.2982,-144 111.2982,-150 111.2982,-150 111.2982,-162 111.2982,-162 111.2982,-168 105.2982,-174 99.2982,-174"/>
<text text-anchor="middle" x="75.3302" y="-152.4" font-family="YaHei Consolas" font-size="12.00" fill="#ffffff">HloVerifier</text>
</g>
<!-- 72&#45;&gt;80 -->
<!-- 74 -->
<g id="node75" class="node">
<title>74</title>
<path fill="#00bfff" stroke="#00bfff" d="M537.891,-266C537.891,-266 431.927,-266 431.927,-266 425.927,-266 419.927,-260 419.927,-254 419.927,-254 419.927,-242 419.927,-242 419.927,-236 425.927,-230 431.927,-230 431.927,-230 537.891,-230 537.891,-230 543.891,-230 549.891,-236 549.891,-242 549.891,-242 549.891,-254 549.891,-254 549.891,-260 543.891,-266 537.891,-266"/>
<text text-anchor="middle" x="484.909" y="-244.4" font-family="YaHei Consolas" font-size="12.00" fill="#ffffff">BFloat16Normalization</text>
</g>
<!-- 73&#45;&gt;74 -->
<g id="edge77" class="edge">
<title>73-&gt;74</title>
<path fill="none" stroke="#999999" d="M367.3891,-248C381.3732,-248 395.7281,-248 409.39,-248"/>
<polygon fill="#999999" stroke="#999999" points="409.6846,-251.5001 419.6845,-248 409.6845,-244.5001 409.6846,-251.5001"/>
</g>
<!-- 75 -->
<g id="node76" class="node">
<title>75</title>
<path fill="#00bfff" stroke="#00bfff" d="M738.6912,-266C738.6912,-266 619.0576,-266 619.0576,-266 613.0576,-266 607.0576,-260 607.0576,-254 607.0576,-254 607.0576,-242 607.0576,-242 607.0576,-236 613.0576,-230 619.0576,-230 619.0576,-230 738.6912,-230 738.6912,-230 744.6912,-230 750.6912,-236 750.6912,-242 750.6912,-242 750.6912,-254 750.6912,-254 750.6912,-260 744.6912,-266 738.6912,-266"/>
<text text-anchor="middle" x="678.8744" y="-244.4" font-family="YaHei Consolas" font-size="12.00" fill="#ffffff">GpuConvAlgorithmPicker</text>
</g>
<!-- 74&#45;&gt;75 -->
<g id="edge78" class="edge">
<title>74-&gt;75</title>
<path fill="none" stroke="#999999" d="M550.0363,-248C565.0229,-248 581.1512,-248 596.7538,-248"/>
<polygon fill="#999999" stroke="#999999" points="596.9138,-251.5001 606.9137,-248 596.9137,-244.5001 596.9138,-251.5001"/>
</g>
<!-- 76 -->
<g id="node77" class="node">
<title>76</title>
<path fill="#00bfff" stroke="#00bfff" d="M910.6702,-266C910.6702,-266 842.3618,-266 842.3618,-266 836.3618,-266 830.3618,-260 830.3618,-254 830.3618,-254 830.3618,-242 830.3618,-242 830.3618,-236 836.3618,-230 842.3618,-230 842.3618,-230 910.6702,-230 910.6702,-230 916.6702,-230 922.6702,-236 922.6702,-242 922.6702,-242 922.6702,-254 922.6702,-254 922.6702,-260 916.6702,-266 910.6702,-266"/>
<text text-anchor="middle" x="876.516" y="-244.4" font-family="YaHei Consolas" font-size="12.00" fill="#ffffff">TupleSimplifier</text>
</g>
<!-- 75&#45;&gt;76 -->
<g id="edge79" class="edge">
<title>75-&gt;76</title>
<path fill="none" stroke="#999999" d="M750.7866,-248C773.5509,-248 798.3774,-248 819.9106,-248"/>
<polygon fill="#999999" stroke="#999999" points="820.1935,-251.5001 830.1934,-248 820.1934,-244.5001 820.1935,-251.5001"/>
</g>
<!-- 77 -->
<g id="node78" class="node">
<title>77</title>
<path fill="#00bfff" stroke="#00bfff" d="M1088.8276,-266C1088.8276,-266 1056.8236,-266 1056.8236,-266 1050.8236,-266 1044.8236,-260 1044.8236,-254 1044.8236,-254 1044.8236,-242 1044.8236,-242 1044.8236,-236 1050.8236,-230 1056.8236,-230 1056.8236,-230 1088.8276,-230 1088.8276,-230 1094.8276,-230 1100.8276,-236 1100.8276,-242 1100.8276,-242 1100.8276,-254 1100.8276,-254 1100.8276,-260 1094.8276,-266 1088.8276,-266"/>
<text text-anchor="middle" x="1072.8256" y="-244.4" font-family="YaHei Consolas" font-size="12.00" fill="#ffffff">HloCSE</text>
</g>
<!-- 76&#45;&gt;77 -->
<g id="edge80" class="edge">
<title>76-&gt;77</title>
<path fill="none" stroke="#999999" d="M923.0386,-248C956.9601,-248 1002.383,-248 1034.2835,-248"/>
<polygon fill="#999999" stroke="#999999" points="1034.5474,-251.5001 1044.5474,-248 1034.5473,-244.5001 1034.5474,-251.5001"/>
</g>
<!-- 78 -->
<g id="node79" class="node">
<title>78</title>
<path fill="#00bfff" stroke="#00bfff" d="M1316.5936,-266C1316.5936,-266 1210.9728,-266 1210.9728,-266 1204.9728,-266 1198.9728,-260 1198.9728,-254 1198.9728,-254 1198.9728,-242 1198.9728,-242 1198.9728,-236 1204.9728,-230 1210.9728,-230 1210.9728,-230 1316.5936,-230 1316.5936,-230 1322.5936,-230 1328.5936,-236 1328.5936,-242 1328.5936,-242 1328.5936,-254 1328.5936,-254 1328.5936,-260 1322.5936,-266 1316.5936,-266"/>
<text text-anchor="middle" x="1263.7832" y="-244.4" font-family="YaHei Consolas" font-size="12.00" fill="#ffffff">GemmAlgorithmPicker</text>
</g>
<!-- 77&#45;&gt;78 -->
<g id="edge81" class="edge">
<title>77-&gt;78</title>
<path fill="none" stroke="#999999" d="M1101.0021,-248C1124.118,-248 1157.9426,-248 1188.7777,-248"/>
<polygon fill="#999999" stroke="#999999" points="1189.1004,-251.5001 1199.1004,-248 1189.1003,-244.5001 1189.1004,-251.5001"/>
</g>
<!-- 79 -->
<g id="node80" class="node">
<title>79</title>
<path fill="#00bfff" stroke="#00bfff" d="M1498.5238,-266C1498.5238,-266 1414.919,-266 1414.919,-266 1408.919,-266 1402.919,-260 1402.919,-254 1402.919,-254 1402.919,-242 1402.919,-242 1402.919,-236 1408.919,-230 1414.919,-230 1414.919,-230 1498.5238,-230 1498.5238,-230 1504.5238,-230 1510.5238,-236 1510.5238,-242 1510.5238,-242 1510.5238,-254 1510.5238,-254 1510.5238,-260 1504.5238,-266 1498.5238,-266"/>
<text text-anchor="middle" x="1456.7214" y="-244.4" font-family="YaHei Consolas" font-size="12.00" fill="#ffffff">VariadicOpSplitter</text>
</g>
<!-- 78&#45;&gt;79 -->
<g id="edge82" class="edge">
<title>78-&gt;79</title>
<path fill="none" stroke="#999999" d="M1328.5656,-248C1349.2625,-248 1372.1485,-248 1392.7849,-248"/>
<polygon fill="#999999" stroke="#999999" points="1393.0305,-251.5001 1403.0304,-248 1393.0304,-244.5001 1393.0305,-251.5001"/>
</g>
<!-- 79&#45;&gt;80 -->
<g id="edge107" class="edge">
<title>79-&gt;80</title>
<path fill="none" stroke="#999999" d="M1402.8827,-233.8042C1382.9668,-229.0407 1360.1197,-224.1452 1339.0852,-221 1221.7511,-203.4556 1191.4641,-202 1072.8256,-202 484.909,-202 484.909,-202 484.909,-202 352.0854,-202 317.9772,-202.9505 186.6604,-183 164.8773,-179.6906 141.0985,-174.1891 121.1307,-169.0126"/>
<polygon fill="#999999" stroke="#999999" points="121.9269,-165.6029 111.3643,-166.4289 120.1366,-172.3701 121.9269,-165.6029"/>
</g>
<!-- 81 -->
<g id="node82" class="node">
<title>81</title>
<path fill="#00bfff" stroke="#00bfff" d="M328.119,-174C328.119,-174 230.4726,-174 230.4726,-174 224.4726,-174 218.4726,-168 218.4726,-162 218.4726,-162 218.4726,-150 218.4726,-150 218.4726,-144 224.4726,-138 230.4726,-138 230.4726,-138 328.119,-138 328.119,-138 334.119,-138 340.119,-144 340.119,-150 340.119,-150 340.119,-162 340.119,-162 340.119,-168 334.119,-174 328.119,-174"/>
<text text-anchor="middle" x="279.2958" y="-152.4" font-family="YaHei Consolas" font-size="12.00" fill="#ffffff">GpuInstructionFusion</text>
</g>
<!-- 80&#45;&gt;81 -->
<g id="edge83" class="edge">
<title>80-&gt;81</title>
<path fill="none" stroke="#999999" d="M111.3256,-156C138.1691,-156 175.7016,-156 208.4813,-156"/>
<polygon fill="#999999" stroke="#999999" points="208.4846,-159.5001 218.4846,-156 208.4846,-152.5001 208.4846,-159.5001"/>
</g>
<!-- 88 -->
<g id="node89" class="node">
<title>88</title>
<path fill="#00bfff" stroke="#00bfff" d="M136.3106,-90C136.3106,-90 14.3498,-90 14.3498,-90 8.3498,-90 2.3498,-84 2.3498,-78 2.3498,-78 2.3498,-66 2.3498,-66 2.3498,-60 8.3498,-54 14.3498,-54 14.3498,-54 136.3106,-54 136.3106,-54 142.3106,-54 148.3106,-60 148.3106,-66 148.3106,-66 148.3106,-78 148.3106,-78 148.3106,-84 142.3106,-90 136.3106,-90"/>
<text text-anchor="middle" x="75.3302" y="-68.4" font-family="YaHei Consolas" font-size="12.00" fill="#ffffff">GpuHorizontalInputFusion</text>
</g>
<!-- 80&#45;&gt;88 -->
<!-- 82 -->
<g id="node83" class="node">
<title>82</title>
<path fill="#00bfff" stroke="#00bfff" d="M533.7322,-174C533.7322,-174 436.0858,-174 436.0858,-174 430.0858,-174 424.0858,-168 424.0858,-162 424.0858,-162 424.0858,-150 424.0858,-150 424.0858,-144 430.0858,-138 436.0858,-138 436.0858,-138 533.7322,-138 533.7322,-138 539.7322,-138 545.7322,-144 545.7322,-150 545.7322,-150 545.7322,-162 545.7322,-162 545.7322,-168 539.7322,-174 533.7322,-174"/>
<text text-anchor="middle" x="484.909" y="-152.4" font-family="YaHei Consolas" font-size="12.00" fill="#ffffff">GpuInstructionFusion</text>
</g>
<!-- 81&#45;&gt;82 -->
<g id="edge84" class="edge">
<title>81-&gt;82</title>
<path fill="none" stroke="#999999" d="M340.152,-156C363.362,-156 390.0154,-156 414.0744,-156"/>
<polygon fill="#999999" stroke="#999999" points="414.209,-159.5001 424.209,-156 414.2089,-152.5001 414.209,-159.5001"/>
</g>
<!-- 83 -->
<g id="node84" class="node">
<title>83</title>
<path fill="#00bfff" stroke="#00bfff" d="M708.8568,-174C708.8568,-174 648.892,-174 648.892,-174 642.892,-174 636.892,-168 636.892,-162 636.892,-162 636.892,-150 636.892,-150 636.892,-144 642.892,-138 648.892,-138 648.892,-138 708.8568,-138 708.8568,-138 714.8568,-138 720.8568,-144 720.8568,-150 720.8568,-150 720.8568,-162 720.8568,-162 720.8568,-168 714.8568,-174 708.8568,-174"/>
<text text-anchor="middle" x="678.8744" y="-152.4" font-family="YaHei Consolas" font-size="12.00" fill="#ffffff">FusionMerger</text>
</g>
<!-- 82&#45;&gt;83 -->
<g id="edge85" class="edge">
<title>82-&gt;83</title>
<path fill="none" stroke="#999999" d="M545.7487,-156C571.6074,-156 601.4666,-156 626.3454,-156"/>
<polygon fill="#999999" stroke="#999999" points="626.6766,-159.5001 636.6766,-156 626.6765,-152.5001 626.6766,-159.5001"/>
</g>
<!-- 84 -->
<g id="node85" class="node">
<title>84</title>
<path fill="#00bfff" stroke="#00bfff" d="M929.3552,-174C929.3552,-174 823.6768,-174 823.6768,-174 817.6768,-174 811.6768,-168 811.6768,-162 811.6768,-162 811.6768,-150 811.6768,-150 811.6768,-144 817.6768,-138 823.6768,-138 823.6768,-138 929.3552,-138 929.3552,-138 935.3552,-138 941.3552,-144 941.3552,-150 941.3552,-150 941.3552,-162 941.3552,-162 941.3552,-168 935.3552,-174 929.3552,-174"/>
<text text-anchor="middle" x="876.516" y="-152.4" font-family="YaHei Consolas" font-size="12.00" fill="#ffffff">GpuMultiOutputFusion</text>
</g>
<!-- 83&#45;&gt;84 -->
<g id="edge86" class="edge">
<title>83-&gt;84</title>
<path fill="none" stroke="#999999" d="M721.2735,-156C744.6071,-156 774.2523,-156 801.3701,-156"/>
<polygon fill="#999999" stroke="#999999" points="801.6212,-159.5001 811.6211,-156 801.6211,-152.5001 801.6212,-159.5001"/>
</g>
<!-- 85 -->
<g id="node86" class="node">
<title>85</title>
<path fill="#00bfff" stroke="#00bfff" d="M1088.8276,-174C1088.8276,-174 1056.8236,-174 1056.8236,-174 1050.8236,-174 1044.8236,-168 1044.8236,-162 1044.8236,-162 1044.8236,-150 1044.8236,-150 1044.8236,-144 1050.8236,-138 1056.8236,-138 1056.8236,-138 1088.8276,-138 1088.8276,-138 1094.8276,-138 1100.8276,-144 1100.8276,-150 1100.8276,-150 1100.8276,-162 1100.8276,-162 1100.8276,-168 1094.8276,-174 1088.8276,-174"/>
<text text-anchor="middle" x="1072.8256" y="-152.4" font-family="YaHei Consolas" font-size="12.00" fill="#ffffff">HloCSE</text>
</g>
<!-- 84&#45;&gt;85 -->
<g id="edge87" class="edge">
<title>84-&gt;85</title>
<path fill="none" stroke="#999999" d="M941.3392,-156C972.2975,-156 1008.2756,-156 1034.7633,-156"/>
<polygon fill="#999999" stroke="#999999" points="1034.7759,-159.5001 1044.7758,-156 1034.7758,-152.5001 1034.7759,-159.5001"/>
</g>
<!-- 86 -->
<g id="node87" class="node">
<title>86</title>
<path fill="#00bfff" stroke="#00bfff" d="M1280.7772,-174C1280.7772,-174 1246.7892,-174 1246.7892,-174 1240.7892,-174 1234.7892,-168 1234.7892,-162 1234.7892,-162 1234.7892,-150 1234.7892,-150 1234.7892,-144 1240.7892,-138 1246.7892,-138 1246.7892,-138 1280.7772,-138 1280.7772,-138 1286.7772,-138 1292.7772,-144 1292.7772,-150 1292.7772,-150 1292.7772,-162 1292.7772,-162 1292.7772,-168 1286.7772,-174 1280.7772,-174"/>
<text text-anchor="middle" x="1263.7832" y="-152.4" font-family="YaHei Consolas" font-size="12.00" fill="#ffffff">HloDCE</text>
</g>
<!-- 85&#45;&gt;86 -->
<g id="edge88" class="edge">
<title>85-&gt;86</title>
<path fill="none" stroke="#999999" d="M1101.0021,-156C1133.5788,-156 1187.4234,-156 1224.1963,-156"/>
<polygon fill="#999999" stroke="#999999" points="1224.5502,-159.5001 1234.5502,-156 1224.5502,-152.5001 1224.5502,-159.5001"/>
</g>
<!-- 87 -->
<g id="node88" class="node">
<title>87</title>
<path fill="#00bfff" stroke="#00bfff" d="M1517.703,-174C1517.703,-174 1395.7398,-174 1395.7398,-174 1389.7398,-174 1383.7398,-168 1383.7398,-162 1383.7398,-162 1383.7398,-150 1383.7398,-150 1383.7398,-144 1389.7398,-138 1395.7398,-138 1395.7398,-138 1517.703,-138 1517.703,-138 1523.703,-138 1529.703,-144 1529.703,-150 1529.703,-150 1529.703,-162 1529.703,-162 1529.703,-168 1523.703,-174 1517.703,-174"/>
<text text-anchor="middle" x="1456.7214" y="-152.4" font-family="YaHei Consolas" font-size="12.00" fill="#ffffff">GpuHorizontalLoopFusion</text>
</g>
<!-- 86&#45;&gt;87 -->
<g id="edge89" class="edge">
<title>86-&gt;87</title>
<path fill="none" stroke="#999999" d="M1293.0864,-156C1314.5866,-156 1344.9233,-156 1373.6449,-156"/>
<polygon fill="#999999" stroke="#999999" points="1373.7196,-159.5001 1383.7196,-156 1373.7195,-152.5001 1373.7196,-159.5001"/>
</g>
<!-- 87&#45;&gt;88 -->
<g id="edge108" class="edge">
<title>87-&gt;88</title>
<path fill="none" stroke="#999999" d="M1386.1437,-137.9408C1370.7197,-134.5165 1354.4207,-131.293 1339.0852,-129 1221.7511,-111.4556 1191.4641,-110 1072.8256,-110 484.909,-110 484.909,-110 484.909,-110 352.0854,-110 318.5864,-106.4162 186.6604,-91 177.5786,-89.9388 168.1113,-88.6337 158.7003,-87.2088"/>
<polygon fill="#999999" stroke="#999999" points="158.9516,-83.7057 148.5314,-85.6216 157.872,-90.622 158.9516,-83.7057"/>
</g>
<!-- 89 -->
<g id="node90" class="node">
<title>89</title>
<path fill="#00bfff" stroke="#00bfff" d="M317.291,-82C317.291,-82 241.3006,-82 241.3006,-82 235.3006,-82 229.3006,-76 229.3006,-70 229.3006,-70 229.3006,-58 229.3006,-58 229.3006,-52 235.3006,-46 241.3006,-46 241.3006,-46 317.291,-46 317.291,-46 323.291,-46 329.291,-52 329.291,-58 329.291,-58 329.291,-70 329.291,-70 329.291,-76 323.291,-82 317.291,-82"/>
<text text-anchor="middle" x="279.2958" y="-60.4" font-family="YaHei Consolas" font-size="12.00" fill="#ffffff">FusionBitcastLift</text>
</g>
<!-- 88&#45;&gt;89 -->
<g id="edge90" class="edge">
<title>88-&gt;89</title>
<path fill="none" stroke="#999999" d="M148.3904,-69.1344C171.4815,-68.2287 196.7292,-67.2385 218.8373,-66.3713"/>
<polygon fill="#999999" stroke="#999999" points="219.2287,-69.8588 229.0838,-65.9694 218.9543,-62.8641 219.2287,-69.8588"/>
</g>
<!-- 96 -->
<g id="node97" class="node">
<title>96</title>
<path fill="#00bfff" stroke="#00bfff" d="M119.299,-36C119.299,-36 31.3614,-36 31.3614,-36 25.3614,-36 19.3614,-30 19.3614,-24 19.3614,-24 19.3614,-12 19.3614,-12 19.3614,-6 25.3614,0 31.3614,0 31.3614,0 119.299,0 119.299,0 125.299,0 131.299,-6 131.299,-12 131.299,-12 131.299,-24 131.299,-24 131.299,-30 125.299,-36 119.299,-36"/>
<text text-anchor="middle" x="75.3302" y="-14.4" font-family="YaHei Consolas" font-size="12.00" fill="#ffffff">AlgebraicSimplifier</text>
</g>
<!-- 88&#45;&gt;96 -->
<!-- 90 -->
<g id="node91" class="node">
<title>90</title>
<path fill="#00bfff" stroke="#00bfff" d="M500.911,-82C500.911,-82 468.907,-82 468.907,-82 462.907,-82 456.907,-76 456.907,-70 456.907,-70 456.907,-58 456.907,-58 456.907,-52 462.907,-46 468.907,-46 468.907,-46 500.911,-46 500.911,-46 506.911,-46 512.911,-52 512.911,-58 512.911,-58 512.911,-70 512.911,-70 512.911,-76 506.911,-82 500.911,-82"/>
<text text-anchor="middle" x="484.909" y="-60.4" font-family="YaHei Consolas" font-size="12.00" fill="#ffffff">HloCSE</text>
</g>
<!-- 89&#45;&gt;90 -->
<g id="edge91" class="edge">
<title>89-&gt;90</title>
<path fill="none" stroke="#999999" d="M329.3315,-64C365.479,-64 413.5683,-64 446.6633,-64"/>
<polygon fill="#999999" stroke="#999999" points="446.8474,-67.5001 456.8474,-64 446.8474,-60.5001 446.8474,-67.5001"/>
</g>
<!-- 91 -->
<g id="node92" class="node">
<title>91</title>
<path fill="#00bfff" stroke="#00bfff" d="M695.8684,-82C695.8684,-82 661.8804,-82 661.8804,-82 655.8804,-82 649.8804,-76 649.8804,-70 649.8804,-70 649.8804,-58 649.8804,-58 649.8804,-52 655.8804,-46 661.8804,-46 661.8804,-46 695.8684,-46 695.8684,-46 701.8684,-46 707.8684,-52 707.8684,-58 707.8684,-58 707.8684,-70 707.8684,-70 707.8684,-76 701.8684,-82 695.8684,-82"/>
<text text-anchor="middle" x="678.8744" y="-60.4" font-family="YaHei Consolas" font-size="12.00" fill="#ffffff">HloDCE</text>
</g>
<!-- 90&#45;&gt;91 -->
<g id="edge92" class="edge">
<title>90-&gt;91</title>
<path fill="none" stroke="#999999" d="M513.1132,-64C546.4393,-64 602.0891,-64 639.6143,-64"/>
<polygon fill="#999999" stroke="#999999" points="639.6841,-67.5001 649.6841,-64 639.6841,-60.5001 639.6841,-67.5001"/>
</g>
<!-- 92 -->
<g id="node93" class="node">
<title>92</title>
<path fill="#00bfff" stroke="#00bfff" d="M920.4884,-82C920.4884,-82 832.5436,-82 832.5436,-82 826.5436,-82 820.5436,-76 820.5436,-70 820.5436,-70 820.5436,-58 820.5436,-58 820.5436,-52 826.5436,-46 832.5436,-46 832.5436,-46 920.4884,-46 920.4884,-46 926.4884,-46 932.4884,-52 932.4884,-58 932.4884,-58 932.4884,-70 932.4884,-70 932.4884,-76 926.4884,-82 920.4884,-82"/>
<text text-anchor="middle" x="876.516" y="-60.4" font-family="YaHei Consolas" font-size="12.00" fill="#ffffff">AllGatherCombiner</text>
</g>
<!-- 91&#45;&gt;92 -->
<g id="edge93" class="edge">
<title>91-&gt;92</title>
<path fill="none" stroke="#999999" d="M708.0371,-64C734.8152,-64 775.4778,-64 810.1464,-64"/>
<polygon fill="#999999" stroke="#999999" points="810.2187,-67.5001 820.2187,-64 810.2186,-60.5001 810.2187,-67.5001"/>
</g>
<!-- 93 -->
<g id="node94" class="node">
<title>93</title>
<path fill="#00bfff" stroke="#00bfff" d="M1118.6356,-82C1118.6356,-82 1027.0156,-82 1027.0156,-82 1021.0156,-82 1015.0156,-76 1015.0156,-70 1015.0156,-70 1015.0156,-58 1015.0156,-58 1015.0156,-52 1021.0156,-46 1027.0156,-46 1027.0156,-46 1118.6356,-46 1118.6356,-46 1124.6356,-46 1130.6356,-52 1130.6356,-58 1130.6356,-58 1130.6356,-70 1130.6356,-70 1130.6356,-76 1124.6356,-82 1118.6356,-82"/>
<text text-anchor="middle" x="1072.8256" y="-60.4" font-family="YaHei Consolas" font-size="12.00" fill="#ffffff">AllReduceCombiner</text>
</g>
<!-- 92&#45;&gt;93 -->
<g id="edge94" class="edge">
<title>92-&gt;93</title>
<path fill="none" stroke="#999999" d="M932.5077,-64C955.0157,-64 981.1756,-64 1004.7675,-64"/>
<polygon fill="#999999" stroke="#999999" points="1005.0522,-67.5001 1015.0521,-64 1005.0521,-60.5001 1005.0522,-67.5001"/>
</g>
<!-- 94 -->
<g id="node95" class="node">
<title>94</title>
<path fill="#00bfff" stroke="#00bfff" d="M1318.5763,-82C1318.5763,-82 1208.9901,-82 1208.9901,-82 1202.9901,-82 1196.9901,-76 1196.9901,-70 1196.9901,-70 1196.9901,-58 1196.9901,-58 1196.9901,-52 1202.9901,-46 1208.9901,-46 1208.9901,-46 1318.5763,-46 1318.5763,-46 1324.5763,-46 1330.5763,-52 1330.5763,-58 1330.5763,-58 1330.5763,-70 1330.5763,-70 1330.5763,-76 1324.5763,-82 1318.5763,-82"/>
<text text-anchor="middle" x="1263.7832" y="-60.4" font-family="YaHei Consolas" font-size="12.00" fill="#ffffff">ReduceScatterCombiner</text>
</g>
<!-- 93&#45;&gt;94 -->
<g id="edge95" class="edge">
<title>93-&gt;94</title>
<path fill="none" stroke="#999999" d="M1130.6374,-64C1148.4099,-64 1168.2561,-64 1187.0873,-64"/>
<polygon fill="#999999" stroke="#999999" points="1187.1244,-67.5001 1197.1243,-64 1187.1243,-60.5001 1187.1244,-67.5001"/>
</g>
<!-- 95 -->
<g id="node96" class="node">
<title>95</title>
<path fill="#00bfff" stroke="#00bfff" d="M1526.494,-59C1526.494,-59 1386.9488,-59 1386.9488,-59 1380.9488,-59 1374.9488,-53 1374.9488,-47 1374.9488,-47 1374.9488,-35 1374.9488,-35 1374.9488,-29 1380.9488,-23 1386.9488,-23 1386.9488,-23 1526.494,-23 1526.494,-23 1532.494,-23 1538.494,-29 1538.494,-35 1538.494,-35 1538.494,-47 1538.494,-47 1538.494,-53 1532.494,-59 1526.494,-59"/>
<text text-anchor="middle" x="1456.7214" y="-37.4" font-family="YaHei Consolas" font-size="12.00" fill="#ffffff">CollectivesScheduleLinearizer</text>
</g>
<!-- 94&#45;&gt;95 -->
<g id="edge96" class="edge">
<title>94-&gt;95</title>
<path fill="none" stroke="#999999" d="M1330.4517,-56.0525C1341.572,-54.7269 1353.278,-53.3314 1364.8942,-51.9466"/>
<polygon fill="#999999" stroke="#999999" points="1365.5467,-55.3937 1375.0621,-50.7345 1364.7181,-48.4429 1365.5467,-55.3937"/>
</g>
<!-- 95&#45;&gt;96 -->
<g id="edge97" class="edge">
<title>95-&gt;96</title>
<path fill="none" stroke="#999999" d="M1374.8048,-33.2453C1297.1382,-26.5682 1177.1507,-18 1072.8256,-18 484.909,-18 484.909,-18 484.909,-18 363.6996,-18 222.3133,-18 141.36,-18"/>
<polygon fill="#999999" stroke="#999999" points="141.3109,-14.5001 131.3109,-18 141.3108,-21.5001 141.3109,-14.5001"/>
</g>
</g>
</svg>